<?xml version="1.0" encoding="utf-8" standalone="no"?>
<!DOCTYPE svg PUBLIC "-//W3C//DTD SVG 1.1//EN"
  "http://www.w3.org/Graphics/SVG/1.1/DTD/svg11.dtd">
<svg xmlns:xlink="http://www.w3.org/1999/xlink" width="460.8pt" height="345.6pt" viewBox="0 0 460.8 345.6" xmlns="http://www.w3.org/2000/svg" version="1.1">
 <metadata>
  <rdf:RDF xmlns:dc="http://purl.org/dc/elements/1.1/" xmlns:cc="http://creativecommons.org/ns#" xmlns:rdf="http://www.w3.org/1999/02/22-rdf-syntax-ns#">
   <cc:Work>
    <dc:type rdf:resource="http://purl.org/dc/dcmitype/StillImage"/>
    <dc:date>2022-05-19T22:48:31.681571</dc:date>
    <dc:format>image/svg+xml</dc:format>
    <dc:creator>
     <cc:Agent>
      <dc:title>Matplotlib v3.5.2, https://matplotlib.org/</dc:title>
     </cc:Agent>
    </dc:creator>
   </cc:Work>
  </rdf:RDF>
 </metadata>
 <defs>
  <style type="text/css">*{stroke-linejoin: round; stroke-linecap: butt}</style>
 </defs>
 <g id="figure_1">
  <g id="patch_1">
   <path d="M 0 345.6 
L 460.8 345.6 
L 460.8 0 
L 0 0 
z
" style="fill: #ffffff"/>
  </g>
  <g id="axes_1">
   <g id="patch_2">
    <path d="M 69.59 295 
L 450 295 
L 450 10.8 
L 69.59 10.8 
z
" style="fill: #ffffff"/>
   </g>
   <g id="PolyCollection_1">
    <path d="M 130.980143 110.775068 
L 130.980143 220.423567 
L 133.301132 222.773056 
L 135.62212 225.002584 
L 137.943109 227.12018 
L 140.264097 229.133212 
L 142.585085 231.048455 
L 144.906074 232.872139 
L 147.227062 234.610011 
L 149.548051 236.26737 
L 151.869039 237.849114 
L 154.190027 239.359774 
L 156.511016 240.803546 
L 158.832004 242.184322 
L 161.152993 243.505713 
L 163.473981 244.771078 
L 165.794969 245.983539 
L 168.115958 247.146005 
L 170.436946 248.261187 
L 172.757935 249.331615 
L 175.078923 250.359653 
L 177.399912 251.347509 
L 179.7209 252.29725 
L 182.041888 253.210813 
L 184.362877 254.090012 
L 186.683865 254.936549 
L 189.004854 255.752021 
L 191.325842 256.537931 
L 193.64683 257.295691 
L 195.967819 258.026628 
L 198.288807 258.731995 
L 200.609796 259.41297 
L 202.930784 260.070664 
L 205.251772 260.706127 
L 207.572761 261.32035 
L 209.893749 261.91427 
L 212.214738 262.48877 
L 214.535726 263.044689 
L 216.856714 263.582819 
L 219.177703 264.103911 
L 221.498691 264.608677 
L 223.81968 265.097792 
L 226.140668 265.571896 
L 228.461656 266.031598 
L 230.782645 266.477475 
L 233.103633 266.910075 
L 235.424622 267.329921 
L 237.74561 267.737509 
L 240.066599 268.133312 
L 242.387587 268.517779 
L 244.708575 268.89134 
L 247.029564 269.254403 
L 249.350552 269.607358 
L 251.671541 269.950576 
L 253.992529 270.284413 
L 256.313517 270.609207 
L 258.634506 270.925283 
L 260.955494 271.232948 
L 263.276483 271.532499 
L 265.597471 271.824219 
L 267.918459 272.108379 
L 270.239448 272.385237 
L 272.560436 272.655041 
L 274.881425 272.918029 
L 277.202413 273.174429 
L 279.523401 273.42446 
L 281.84439 273.668329 
L 284.165378 273.906238 
L 286.486367 274.13838 
L 288.807355 274.36494 
L 291.128344 274.586094 
L 293.449332 274.802015 
L 295.77032 275.012864 
L 298.091309 275.218801 
L 300.412297 275.419977 
L 302.733286 275.616537 
L 305.054274 275.808621 
L 307.375262 275.996364 
L 309.696251 276.179896 
L 312.017239 276.359343 
L 314.338228 276.534823 
L 316.659216 276.706454 
L 318.980204 276.874348 
L 321.301193 277.038611 
L 323.622181 277.199348 
L 325.94317 277.356659 
L 328.264158 277.510641 
L 330.585146 277.661387 
L 332.906135 277.808987 
L 335.227123 277.953527 
L 337.548112 278.095093 
L 339.8691 278.233765 
L 342.190088 278.369621 
L 344.511077 278.502738 
L 346.832065 278.633187 
L 349.153054 278.761041 
L 351.474042 278.886367 
L 353.795031 279.009231 
L 356.116019 279.129699 
L 358.437007 279.247831 
L 360.757996 279.363687 
L 363.078984 279.477327 
L 365.399973 279.588805 
L 367.720961 279.698176 
L 370.041949 279.805494 
L 372.362938 279.910809 
L 374.683926 280.014171 
L 377.004915 280.115627 
L 379.325903 280.215224 
L 381.646891 280.313008 
L 383.96788 280.409023 
L 386.288868 280.50331 
L 388.609857 280.59591 
L 390.930845 280.686865 
L 393.251833 280.776212 
L 395.572822 280.863989 
L 397.89381 280.950233 
L 400.214799 281.034979 
L 402.535787 281.118262 
L 404.856775 281.200116 
L 407.177764 281.280572 
L 409.498752 281.359662 
L 411.819741 281.437418 
L 414.140729 281.513869 
L 416.461718 281.589044 
L 418.782706 281.662971 
L 421.103694 281.735678 
L 423.424683 281.807191 
L 425.745671 281.877537 
L 428.06666 281.94674 
L 430.387648 282.014826 
L 432.708636 282.081818 
L 432.708636 23.718182 
L 432.708636 23.718182 
L 430.387648 24.192503 
L 428.06666 24.668534 
L 425.745671 25.146291 
L 423.424683 25.625789 
L 421.103694 26.107044 
L 418.782706 26.590073 
L 416.461718 27.074891 
L 414.140729 27.561516 
L 411.819741 28.049965 
L 409.498752 28.540254 
L 407.177764 29.032401 
L 404.856775 29.526424 
L 402.535787 30.02234 
L 400.214799 30.520169 
L 397.89381 31.019928 
L 395.572822 31.521636 
L 393.251833 32.025313 
L 390.930845 32.530978 
L 388.609857 33.03865 
L 386.288868 33.54835 
L 383.96788 34.060099 
L 381.646891 34.573915 
L 379.325903 35.089822 
L 377.004915 35.60784 
L 374.683926 36.12799 
L 372.362938 36.650296 
L 370.041949 37.174779 
L 367.720961 37.701462 
L 365.399973 38.230368 
L 363.078984 38.761522 
L 360.757996 39.294947 
L 358.437007 39.830668 
L 356.116019 40.368708 
L 353.795031 40.909095 
L 351.474042 41.451853 
L 349.153054 41.997009 
L 346.832065 42.544589 
L 344.511077 43.09462 
L 342.190088 43.64713 
L 339.8691 44.202148 
L 337.548112 44.759701 
L 335.227123 45.319819 
L 332.906135 45.882532 
L 330.585146 46.44787 
L 328.264158 47.015864 
L 325.94317 47.586544 
L 323.622181 48.159944 
L 321.301193 48.736096 
L 318.980204 49.315033 
L 316.659216 49.896789 
L 314.338228 50.481398 
L 312.017239 51.068896 
L 309.696251 51.659319 
L 307.375262 52.252703 
L 305.054274 52.849086 
L 302.733286 53.448506 
L 300.412297 54.051002 
L 298.091309 54.656613 
L 295.77032 55.265381 
L 293.449332 55.877347 
L 291.128344 56.492553 
L 288.807355 57.111042 
L 286.486367 57.732859 
L 284.165378 58.358048 
L 281.84439 58.986656 
L 279.523401 59.61873 
L 277.202413 60.254317 
L 274.881425 60.893468 
L 272.560436 61.536233 
L 270.239448 62.182663 
L 267.918459 62.832811 
L 265.597471 63.48673 
L 263.276483 64.144476 
L 260.955494 64.806106 
L 258.634506 65.471677 
L 256.313517 66.141249 
L 253.992529 66.814881 
L 251.671541 67.492637 
L 249.350552 68.17458 
L 247.029564 68.860775 
L 244.708575 69.55129 
L 242.387587 70.246192 
L 240.066599 70.945552 
L 237.74561 71.649443 
L 235.424622 72.357938 
L 233.103633 73.071113 
L 230.782645 73.789047 
L 228.461656 74.51182 
L 226.140668 75.239514 
L 223.81968 75.972214 
L 221.498691 76.710006 
L 219.177703 77.452981 
L 216.856714 78.201229 
L 214.535726 78.954847 
L 212.214738 79.71393 
L 209.893749 80.47858 
L 207.572761 81.248899 
L 205.251772 82.024994 
L 202.930784 82.806974 
L 200.609796 83.594952 
L 198.288807 84.389045 
L 195.967819 85.189372 
L 193.64683 85.996057 
L 191.325842 86.809228 
L 189.004854 87.629018 
L 186.683865 88.455562 
L 184.362877 89.289001 
L 182.041888 90.129481 
L 179.7209 90.977152 
L 177.399912 91.832171 
L 175.078923 92.694698 
L 172.757935 93.564901 
L 170.436946 94.442953 
L 168.115958 95.329033 
L 165.794969 96.223328 
L 163.473981 97.126029 
L 161.152993 98.037339 
L 158.832004 98.957464 
L 156.511016 99.886621 
L 154.190027 100.825036 
L 151.869039 101.772942 
L 149.548051 102.730583 
L 147.227062 103.698213 
L 144.906074 104.676097 
L 142.585085 105.66451 
L 140.264097 106.66374 
L 137.943109 107.67409 
L 135.62212 108.695872 
L 133.301132 109.729416 
L 130.980143 110.775068 
z
" clip-path="url(#pe30f7acf3b)" style="fill: #1f77b4"/>
   </g>
   <g id="PolyCollection_2">
    <defs>
     <path id="m9adfe44054" d="M 175.078923 -252.905302 
L 175.078923 -95.240347 
L 177.399912 -94.252491 
L 179.7209 -93.30275 
L 182.041888 -92.389187 
L 184.362877 -91.509988 
L 186.683865 -90.663451 
L 189.004854 -89.847979 
L 191.325842 -89.062069 
L 193.64683 -88.304309 
L 195.967819 -87.573372 
L 198.288807 -86.868005 
L 200.609796 -86.18703 
L 202.930784 -85.529336 
L 205.251772 -84.893873 
L 207.572761 -84.27965 
L 209.893749 -83.68573 
L 212.214738 -83.11123 
L 214.535726 -82.555311 
L 216.856714 -82.017181 
L 219.177703 -81.496089 
L 221.498691 -80.991323 
L 223.81968 -80.502208 
L 226.140668 -80.028104 
L 228.461656 -79.568402 
L 230.782645 -79.122525 
L 233.103633 -78.689925 
L 235.424622 -78.270079 
L 237.74561 -77.862491 
L 240.066599 -77.466688 
L 242.387587 -77.082221 
L 244.708575 -76.70866 
L 247.029564 -76.345597 
L 249.350552 -75.992642 
L 251.671541 -75.649424 
L 253.992529 -75.315587 
L 256.313517 -74.990793 
L 258.634506 -74.674717 
L 260.955494 -74.367052 
L 263.276483 -74.067501 
L 265.597471 -73.775781 
L 267.918459 -73.491621 
L 270.239448 -73.214763 
L 272.560436 -72.944959 
L 274.881425 -72.681971 
L 277.202413 -72.425571 
L 279.523401 -72.17554 
L 281.84439 -71.931671 
L 284.165378 -71.693762 
L 286.486367 -71.46162 
L 288.807355 -71.23506 
L 291.128344 -71.013906 
L 293.449332 -70.797985 
L 295.77032 -70.587136 
L 298.091309 -70.381199 
L 300.412297 -70.180023 
L 302.733286 -69.983463 
L 305.054274 -69.791379 
L 307.375262 -69.603636 
L 309.696251 -69.420104 
L 312.017239 -69.240657 
L 314.338228 -69.065177 
L 316.659216 -68.893546 
L 318.980204 -68.725652 
L 321.301193 -68.561389 
L 323.622181 -68.400652 
L 325.94317 -68.243341 
L 328.264158 -68.089359 
L 330.585146 -67.938613 
L 332.906135 -67.791013 
L 335.227123 -67.646473 
L 337.548112 -67.504907 
L 339.8691 -67.366235 
L 342.190088 -67.230379 
L 344.511077 -67.097262 
L 346.832065 -66.966813 
L 349.153054 -66.838959 
L 351.474042 -66.713633 
L 353.795031 -66.590769 
L 356.116019 -66.470301 
L 358.437007 -66.352169 
L 360.757996 -66.236313 
L 363.078984 -66.122673 
L 365.399973 -66.011195 
L 367.720961 -65.901824 
L 370.041949 -65.794506 
L 372.362938 -65.689191 
L 374.683926 -65.585829 
L 377.004915 -65.484373 
L 379.325903 -65.384776 
L 381.646891 -65.286992 
L 383.96788 -65.190977 
L 386.288868 -65.09669 
L 388.609857 -65.00409 
L 390.930845 -64.913135 
L 393.251833 -64.823788 
L 395.572822 -64.736011 
L 397.89381 -64.649767 
L 400.214799 -64.565021 
L 402.535787 -64.481738 
L 404.856775 -64.399884 
L 407.177764 -64.319428 
L 409.498752 -64.240338 
L 411.819741 -64.162582 
L 414.140729 -64.086131 
L 416.461718 -64.010956 
L 418.782706 -63.937029 
L 421.103694 -63.864322 
L 423.424683 -63.792809 
L 425.745671 -63.722463 
L 428.06666 -63.65326 
L 430.387648 -63.585174 
L 432.708636 -63.518182 
L 432.708636 -321.881818 
L 432.708636 -321.881818 
L 430.387648 -321.407497 
L 428.06666 -320.931466 
L 425.745671 -320.453709 
L 423.424683 -319.974211 
L 421.103694 -319.492956 
L 418.782706 -319.009927 
L 416.461718 -318.525109 
L 414.140729 -318.038484 
L 411.819741 -317.550035 
L 409.498752 -317.059746 
L 407.177764 -316.567599 
L 404.856775 -316.073576 
L 402.535787 -315.57766 
L 400.214799 -315.079831 
L 397.89381 -314.580072 
L 395.572822 -314.078364 
L 393.251833 -313.574687 
L 390.930845 -313.069022 
L 388.609857 -312.56135 
L 386.288868 -312.05165 
L 383.96788 -311.539901 
L 381.646891 -311.026085 
L 379.325903 -310.510178 
L 377.004915 -309.99216 
L 374.683926 -309.47201 
L 372.362938 -308.949704 
L 370.041949 -308.425221 
L 367.720961 -307.898538 
L 365.399973 -307.369632 
L 363.078984 -306.838478 
L 360.757996 -306.305053 
L 358.437007 -305.769332 
L 356.116019 -305.231292 
L 353.795031 -304.690905 
L 351.474042 -304.148147 
L 349.153054 -303.602991 
L 346.832065 -303.055411 
L 344.511077 -302.50538 
L 342.190088 -301.95287 
L 339.8691 -301.397852 
L 337.548112 -300.840299 
L 335.227123 -300.280181 
L 332.906135 -299.717468 
L 330.585146 -299.15213 
L 328.264158 -298.584136 
L 325.94317 -298.013456 
L 323.622181 -297.440056 
L 321.301193 -296.863904 
L 318.980204 -296.284967 
L 316.659216 -295.703211 
L 314.338228 -295.118602 
L 312.017239 -294.531104 
L 309.696251 -293.940681 
L 307.375262 -293.347297 
L 305.054274 -292.750914 
L 302.733286 -292.151494 
L 300.412297 -291.548998 
L 298.091309 -290.943387 
L 295.77032 -290.334619 
L 293.449332 -289.722653 
L 291.128344 -289.107447 
L 288.807355 -288.488958 
L 286.486367 -287.867141 
L 284.165378 -287.241952 
L 281.84439 -286.613344 
L 279.523401 -285.98127 
L 277.202413 -285.345683 
L 274.881425 -284.706532 
L 272.560436 -284.063767 
L 270.239448 -283.417337 
L 267.918459 -282.767189 
L 265.597471 -282.11327 
L 263.276483 -281.455524 
L 260.955494 -280.793894 
L 258.634506 -280.128323 
L 256.313517 -279.458751 
L 253.992529 -278.785119 
L 251.671541 -278.107363 
L 249.350552 -277.42542 
L 247.029564 -276.739225 
L 244.708575 -276.04871 
L 242.387587 -275.353808 
L 240.066599 -274.654448 
L 237.74561 -273.950557 
L 235.424622 -273.242062 
L 233.103633 -272.528887 
L 230.782645 -271.810953 
L 228.461656 -271.08818 
L 226.140668 -270.360486 
L 223.81968 -269.627786 
L 221.498691 -268.889994 
L 219.177703 -268.147019 
L 216.856714 -267.398771 
L 214.535726 -266.645153 
L 212.214738 -265.88607 
L 209.893749 -265.12142 
L 207.572761 -264.351101 
L 205.251772 -263.575006 
L 202.930784 -262.793026 
L 200.609796 -262.005048 
L 198.288807 -261.210955 
L 195.967819 -260.410628 
L 193.64683 -259.603943 
L 191.325842 -258.790772 
L 189.004854 -257.970982 
L 186.683865 -257.144438 
L 184.362877 -256.310999 
L 182.041888 -255.470519 
L 179.7209 -254.622848 
L 177.399912 -253.767829 
L 175.078923 -252.905302 
z
" style="stroke: #ffffff"/>
    </defs>
    <g clip-path="url(#pe30f7acf3b)">
     <use xlink:href="#m9adfe44054" x="0" y="345.6" style="fill: #ffffff; stroke: #ffffff"/>
    </g>
   </g>
   <g id="matplotlib.axis_1">
    <g id="xtick_1">
     <g id="line2d_1">
      <path d="M 86.881364 295 
L 86.881364 10.8 
" clip-path="url(#pe30f7acf3b)" style="fill: none; stroke: #b0b0b0; stroke-width: 0.8; stroke-linecap: square"/>
     </g>
     <g id="line2d_2">
      <defs>
       <path id="mcb9025910a" d="M 0 0 
L 0 3.5 
" style="stroke: #000000; stroke-width: 0.8"/>
      </defs>
      <g>
       <use xlink:href="#mcb9025910a" x="86.881364" y="295" style="stroke: #000000; stroke-width: 0.8"/>
      </g>
     </g>
     <g id="text_1">
      <!-- 1.0 -->
      <g transform="translate(74.95402 313.397656)scale(0.15 -0.15)">
       <defs>
        <path id="DejaVuSans-31" d="M 794 531 
L 1825 531 
L 1825 4091 
L 703 3866 
L 703 4441 
L 1819 4666 
L 2450 4666 
L 2450 531 
L 3481 531 
L 3481 0 
L 794 0 
L 794 531 
z
" transform="scale(0.015625)"/>
        <path id="DejaVuSans-2e" d="M 684 794 
L 1344 794 
L 1344 0 
L 684 0 
L 684 794 
z
" transform="scale(0.015625)"/>
        <path id="DejaVuSans-30" d="M 2034 4250 
Q 1547 4250 1301 3770 
Q 1056 3291 1056 2328 
Q 1056 1369 1301 889 
Q 1547 409 2034 409 
Q 2525 409 2770 889 
Q 3016 1369 3016 2328 
Q 3016 3291 2770 3770 
Q 2525 4250 2034 4250 
z
M 2034 4750 
Q 2819 4750 3233 4129 
Q 3647 3509 3647 2328 
Q 3647 1150 3233 529 
Q 2819 -91 2034 -91 
Q 1250 -91 836 529 
Q 422 1150 422 2328 
Q 422 3509 836 4129 
Q 1250 4750 2034 4750 
z
" transform="scale(0.015625)"/>
       </defs>
       <use xlink:href="#DejaVuSans-31"/>
       <use xlink:href="#DejaVuSans-2e" x="63.623047"/>
       <use xlink:href="#DejaVuSans-30" x="95.410156"/>
      </g>
     </g>
    </g>
    <g id="xtick_2">
     <g id="line2d_3">
      <path d="M 130.109773 295 
L 130.109773 10.8 
" clip-path="url(#pe30f7acf3b)" style="fill: none; stroke: #b0b0b0; stroke-width: 0.8; stroke-linecap: square"/>
     </g>
     <g id="line2d_4">
      <g>
       <use xlink:href="#mcb9025910a" x="130.109773" y="295" style="stroke: #000000; stroke-width: 0.8"/>
      </g>
     </g>
     <g id="text_2">
      <!-- 1.5 -->
      <g transform="translate(118.182429 313.397656)scale(0.15 -0.15)">
       <defs>
        <path id="DejaVuSans-35" d="M 691 4666 
L 3169 4666 
L 3169 4134 
L 1269 4134 
L 1269 2991 
Q 1406 3038 1543 3061 
Q 1681 3084 1819 3084 
Q 2600 3084 3056 2656 
Q 3513 2228 3513 1497 
Q 3513 744 3044 326 
Q 2575 -91 1722 -91 
Q 1428 -91 1123 -41 
Q 819 9 494 109 
L 494 744 
Q 775 591 1075 516 
Q 1375 441 1709 441 
Q 2250 441 2565 725 
Q 2881 1009 2881 1497 
Q 2881 1984 2565 2268 
Q 2250 2553 1709 2553 
Q 1456 2553 1204 2497 
Q 953 2441 691 2322 
L 691 4666 
z
" transform="scale(0.015625)"/>
       </defs>
       <use xlink:href="#DejaVuSans-31"/>
       <use xlink:href="#DejaVuSans-2e" x="63.623047"/>
       <use xlink:href="#DejaVuSans-35" x="95.410156"/>
      </g>
     </g>
    </g>
    <g id="xtick_3">
     <g id="line2d_5">
      <path d="M 173.338182 295 
L 173.338182 10.8 
" clip-path="url(#pe30f7acf3b)" style="fill: none; stroke: #b0b0b0; stroke-width: 0.8; stroke-linecap: square"/>
     </g>
     <g id="line2d_6">
      <g>
       <use xlink:href="#mcb9025910a" x="173.338182" y="295" style="stroke: #000000; stroke-width: 0.8"/>
      </g>
     </g>
     <g id="text_3">
      <!-- 2.0 -->
      <g transform="translate(161.410838 313.397656)scale(0.15 -0.15)">
       <defs>
        <path id="DejaVuSans-32" d="M 1228 531 
L 3431 531 
L 3431 0 
L 469 0 
L 469 531 
Q 828 903 1448 1529 
Q 2069 2156 2228 2338 
Q 2531 2678 2651 2914 
Q 2772 3150 2772 3378 
Q 2772 3750 2511 3984 
Q 2250 4219 1831 4219 
Q 1534 4219 1204 4116 
Q 875 4013 500 3803 
L 500 4441 
Q 881 4594 1212 4672 
Q 1544 4750 1819 4750 
Q 2544 4750 2975 4387 
Q 3406 4025 3406 3419 
Q 3406 3131 3298 2873 
Q 3191 2616 2906 2266 
Q 2828 2175 2409 1742 
Q 1991 1309 1228 531 
z
" transform="scale(0.015625)"/>
       </defs>
       <use xlink:href="#DejaVuSans-32"/>
       <use xlink:href="#DejaVuSans-2e" x="63.623047"/>
       <use xlink:href="#DejaVuSans-30" x="95.410156"/>
      </g>
     </g>
    </g>
    <g id="xtick_4">
     <g id="line2d_7">
      <path d="M 216.566591 295 
L 216.566591 10.8 
" clip-path="url(#pe30f7acf3b)" style="fill: none; stroke: #b0b0b0; stroke-width: 0.8; stroke-linecap: square"/>
     </g>
     <g id="line2d_8">
      <g>
       <use xlink:href="#mcb9025910a" x="216.566591" y="295" style="stroke: #000000; stroke-width: 0.8"/>
      </g>
     </g>
     <g id="text_4">
      <!-- 2.5 -->
      <g transform="translate(204.639247 313.397656)scale(0.15 -0.15)">
       <use xlink:href="#DejaVuSans-32"/>
       <use xlink:href="#DejaVuSans-2e" x="63.623047"/>
       <use xlink:href="#DejaVuSans-35" x="95.410156"/>
      </g>
     </g>
    </g>
    <g id="xtick_5">
     <g id="line2d_9">
      <path d="M 259.795 295 
L 259.795 10.8 
" clip-path="url(#pe30f7acf3b)" style="fill: none; stroke: #b0b0b0; stroke-width: 0.8; stroke-linecap: square"/>
     </g>
     <g id="line2d_10">
      <g>
       <use xlink:href="#mcb9025910a" x="259.795" y="295" style="stroke: #000000; stroke-width: 0.8"/>
      </g>
     </g>
     <g id="text_5">
      <!-- 3.0 -->
      <g transform="translate(247.867656 313.397656)scale(0.15 -0.15)">
       <defs>
        <path id="DejaVuSans-33" d="M 2597 2516 
Q 3050 2419 3304 2112 
Q 3559 1806 3559 1356 
Q 3559 666 3084 287 
Q 2609 -91 1734 -91 
Q 1441 -91 1130 -33 
Q 819 25 488 141 
L 488 750 
Q 750 597 1062 519 
Q 1375 441 1716 441 
Q 2309 441 2620 675 
Q 2931 909 2931 1356 
Q 2931 1769 2642 2001 
Q 2353 2234 1838 2234 
L 1294 2234 
L 1294 2753 
L 1863 2753 
Q 2328 2753 2575 2939 
Q 2822 3125 2822 3475 
Q 2822 3834 2567 4026 
Q 2313 4219 1838 4219 
Q 1578 4219 1281 4162 
Q 984 4106 628 3988 
L 628 4550 
Q 988 4650 1302 4700 
Q 1616 4750 1894 4750 
Q 2613 4750 3031 4423 
Q 3450 4097 3450 3541 
Q 3450 3153 3228 2886 
Q 3006 2619 2597 2516 
z
" transform="scale(0.015625)"/>
       </defs>
       <use xlink:href="#DejaVuSans-33"/>
       <use xlink:href="#DejaVuSans-2e" x="63.623047"/>
       <use xlink:href="#DejaVuSans-30" x="95.410156"/>
      </g>
     </g>
    </g>
    <g id="xtick_6">
     <g id="line2d_11">
      <path d="M 303.023409 295 
L 303.023409 10.8 
" clip-path="url(#pe30f7acf3b)" style="fill: none; stroke: #b0b0b0; stroke-width: 0.8; stroke-linecap: square"/>
     </g>
     <g id="line2d_12">
      <g>
       <use xlink:href="#mcb9025910a" x="303.023409" y="295" style="stroke: #000000; stroke-width: 0.8"/>
      </g>
     </g>
     <g id="text_6">
      <!-- 3.5 -->
      <g transform="translate(291.096065 313.397656)scale(0.15 -0.15)">
       <use xlink:href="#DejaVuSans-33"/>
       <use xlink:href="#DejaVuSans-2e" x="63.623047"/>
       <use xlink:href="#DejaVuSans-35" x="95.410156"/>
      </g>
     </g>
    </g>
    <g id="xtick_7">
     <g id="line2d_13">
      <path d="M 346.251818 295 
L 346.251818 10.8 
" clip-path="url(#pe30f7acf3b)" style="fill: none; stroke: #b0b0b0; stroke-width: 0.8; stroke-linecap: square"/>
     </g>
     <g id="line2d_14">
      <g>
       <use xlink:href="#mcb9025910a" x="346.251818" y="295" style="stroke: #000000; stroke-width: 0.8"/>
      </g>
     </g>
     <g id="text_7">
      <!-- 4.0 -->
      <g transform="translate(334.324474 313.397656)scale(0.15 -0.15)">
       <defs>
        <path id="DejaVuSans-34" d="M 2419 4116 
L 825 1625 
L 2419 1625 
L 2419 4116 
z
M 2253 4666 
L 3047 4666 
L 3047 1625 
L 3713 1625 
L 3713 1100 
L 3047 1100 
L 3047 0 
L 2419 0 
L 2419 1100 
L 313 1100 
L 313 1709 
L 2253 4666 
z
" transform="scale(0.015625)"/>
       </defs>
       <use xlink:href="#DejaVuSans-34"/>
       <use xlink:href="#DejaVuSans-2e" x="63.623047"/>
       <use xlink:href="#DejaVuSans-30" x="95.410156"/>
      </g>
     </g>
    </g>
    <g id="xtick_8">
     <g id="line2d_15">
      <path d="M 389.480227 295 
L 389.480227 10.8 
" clip-path="url(#pe30f7acf3b)" style="fill: none; stroke: #b0b0b0; stroke-width: 0.8; stroke-linecap: square"/>
     </g>
     <g id="line2d_16">
      <g>
       <use xlink:href="#mcb9025910a" x="389.480227" y="295" style="stroke: #000000; stroke-width: 0.8"/>
      </g>
     </g>
     <g id="text_8">
      <!-- 4.5 -->
      <g transform="translate(377.552884 313.397656)scale(0.15 -0.15)">
       <use xlink:href="#DejaVuSans-34"/>
       <use xlink:href="#DejaVuSans-2e" x="63.623047"/>
       <use xlink:href="#DejaVuSans-35" x="95.410156"/>
      </g>
     </g>
    </g>
    <g id="xtick_9">
     <g id="line2d_17">
      <path d="M 432.708636 295 
L 432.708636 10.8 
" clip-path="url(#pe30f7acf3b)" style="fill: none; stroke: #b0b0b0; stroke-width: 0.8; stroke-linecap: square"/>
     </g>
     <g id="line2d_18">
      <g>
       <use xlink:href="#mcb9025910a" x="432.708636" y="295" style="stroke: #000000; stroke-width: 0.8"/>
      </g>
     </g>
     <g id="text_9">
      <!-- 5.0 -->
      <g transform="translate(420.781293 313.397656)scale(0.15 -0.15)">
       <use xlink:href="#DejaVuSans-35"/>
       <use xlink:href="#DejaVuSans-2e" x="63.623047"/>
       <use xlink:href="#DejaVuSans-30" x="95.410156"/>
      </g>
     </g>
    </g>
    <g id="text_10">
     <!-- x -->
     <g transform="translate(255.355937 331.914844)scale(0.15 -0.15)">
      <defs>
       <path id="DejaVuSans-78" d="M 3513 3500 
L 2247 1797 
L 3578 0 
L 2900 0 
L 1881 1375 
L 863 0 
L 184 0 
L 1544 1831 
L 300 3500 
L 978 3500 
L 1906 2253 
L 2834 3500 
L 3513 3500 
z
" transform="scale(0.015625)"/>
      </defs>
      <use xlink:href="#DejaVuSans-78"/>
     </g>
    </g>
   </g>
   <g id="matplotlib.axis_2">
    <g id="ytick_1">
     <g id="line2d_19">
      <path d="M 69.59 288.270258 
L 450 288.270258 
" clip-path="url(#pe30f7acf3b)" style="fill: none; stroke: #b0b0b0; stroke-width: 0.8; stroke-linecap: square"/>
     </g>
     <g id="line2d_20">
      <defs>
       <path id="mb7946d1954" d="M 0 0 
L -3.5 0 
" style="stroke: #000000; stroke-width: 0.8"/>
      </defs>
      <g>
       <use xlink:href="#mb7946d1954" x="69.59" y="288.270258" style="stroke: #000000; stroke-width: 0.8"/>
      </g>
     </g>
     <g id="text_11">
      <!-- 0.00 -->
      <g transform="translate(29.191563 293.969086)scale(0.15 -0.15)">
       <use xlink:href="#DejaVuSans-30"/>
       <use xlink:href="#DejaVuSans-2e" x="63.623047"/>
       <use xlink:href="#DejaVuSans-30" x="95.410156"/>
       <use xlink:href="#DejaVuSans-30" x="159.033203"/>
      </g>
     </g>
    </g>
    <g id="ytick_2">
     <g id="line2d_21">
      <path d="M 69.59 249.59251 
L 450 249.59251 
" clip-path="url(#pe30f7acf3b)" style="fill: none; stroke: #b0b0b0; stroke-width: 0.8; stroke-linecap: square"/>
     </g>
     <g id="line2d_22">
      <g>
       <use xlink:href="#mb7946d1954" x="69.59" y="249.59251" style="stroke: #000000; stroke-width: 0.8"/>
      </g>
     </g>
     <g id="text_12">
      <!-- 0.25 -->
      <g transform="translate(29.191563 255.291338)scale(0.15 -0.15)">
       <use xlink:href="#DejaVuSans-30"/>
       <use xlink:href="#DejaVuSans-2e" x="63.623047"/>
       <use xlink:href="#DejaVuSans-32" x="95.410156"/>
       <use xlink:href="#DejaVuSans-35" x="159.033203"/>
      </g>
     </g>
    </g>
    <g id="ytick_3">
     <g id="line2d_23">
      <path d="M 69.59 210.914762 
L 450 210.914762 
" clip-path="url(#pe30f7acf3b)" style="fill: none; stroke: #b0b0b0; stroke-width: 0.8; stroke-linecap: square"/>
     </g>
     <g id="line2d_24">
      <g>
       <use xlink:href="#mb7946d1954" x="69.59" y="210.914762" style="stroke: #000000; stroke-width: 0.8"/>
      </g>
     </g>
     <g id="text_13">
      <!-- 0.50 -->
      <g transform="translate(29.191563 216.61359)scale(0.15 -0.15)">
       <use xlink:href="#DejaVuSans-30"/>
       <use xlink:href="#DejaVuSans-2e" x="63.623047"/>
       <use xlink:href="#DejaVuSans-35" x="95.410156"/>
       <use xlink:href="#DejaVuSans-30" x="159.033203"/>
      </g>
     </g>
    </g>
    <g id="ytick_4">
     <g id="line2d_25">
      <path d="M 69.59 172.237013 
L 450 172.237013 
" clip-path="url(#pe30f7acf3b)" style="fill: none; stroke: #b0b0b0; stroke-width: 0.8; stroke-linecap: square"/>
     </g>
     <g id="line2d_26">
      <g>
       <use xlink:href="#mb7946d1954" x="69.59" y="172.237013" style="stroke: #000000; stroke-width: 0.8"/>
      </g>
     </g>
     <g id="text_14">
      <!-- 0.75 -->
      <g transform="translate(29.191563 177.935842)scale(0.15 -0.15)">
       <defs>
        <path id="DejaVuSans-37" d="M 525 4666 
L 3525 4666 
L 3525 4397 
L 1831 0 
L 1172 0 
L 2766 4134 
L 525 4134 
L 525 4666 
z
" transform="scale(0.015625)"/>
       </defs>
       <use xlink:href="#DejaVuSans-30"/>
       <use xlink:href="#DejaVuSans-2e" x="63.623047"/>
       <use xlink:href="#DejaVuSans-37" x="95.410156"/>
       <use xlink:href="#DejaVuSans-35" x="159.033203"/>
      </g>
     </g>
    </g>
    <g id="ytick_5">
     <g id="line2d_27">
      <path d="M 69.59 133.559265 
L 450 133.559265 
" clip-path="url(#pe30f7acf3b)" style="fill: none; stroke: #b0b0b0; stroke-width: 0.8; stroke-linecap: square"/>
     </g>
     <g id="line2d_28">
      <g>
       <use xlink:href="#mb7946d1954" x="69.59" y="133.559265" style="stroke: #000000; stroke-width: 0.8"/>
      </g>
     </g>
     <g id="text_15">
      <!-- 1.00 -->
      <g transform="translate(29.191563 139.258093)scale(0.15 -0.15)">
       <use xlink:href="#DejaVuSans-31"/>
       <use xlink:href="#DejaVuSans-2e" x="63.623047"/>
       <use xlink:href="#DejaVuSans-30" x="95.410156"/>
       <use xlink:href="#DejaVuSans-30" x="159.033203"/>
      </g>
     </g>
    </g>
    <g id="ytick_6">
     <g id="line2d_29">
      <path d="M 69.59 94.881517 
L 450 94.881517 
" clip-path="url(#pe30f7acf3b)" style="fill: none; stroke: #b0b0b0; stroke-width: 0.8; stroke-linecap: square"/>
     </g>
     <g id="line2d_30">
      <g>
       <use xlink:href="#mb7946d1954" x="69.59" y="94.881517" style="stroke: #000000; stroke-width: 0.8"/>
      </g>
     </g>
     <g id="text_16">
      <!-- 1.25 -->
      <g transform="translate(29.191563 100.580345)scale(0.15 -0.15)">
       <use xlink:href="#DejaVuSans-31"/>
       <use xlink:href="#DejaVuSans-2e" x="63.623047"/>
       <use xlink:href="#DejaVuSans-32" x="95.410156"/>
       <use xlink:href="#DejaVuSans-35" x="159.033203"/>
      </g>
     </g>
    </g>
    <g id="ytick_7">
     <g id="line2d_31">
      <path d="M 69.59 56.203769 
L 450 56.203769 
" clip-path="url(#pe30f7acf3b)" style="fill: none; stroke: #b0b0b0; stroke-width: 0.8; stroke-linecap: square"/>
     </g>
     <g id="line2d_32">
      <g>
       <use xlink:href="#mb7946d1954" x="69.59" y="56.203769" style="stroke: #000000; stroke-width: 0.8"/>
      </g>
     </g>
     <g id="text_17">
      <!-- 1.50 -->
      <g transform="translate(29.191563 61.902597)scale(0.15 -0.15)">
       <use xlink:href="#DejaVuSans-31"/>
       <use xlink:href="#DejaVuSans-2e" x="63.623047"/>
       <use xlink:href="#DejaVuSans-35" x="95.410156"/>
       <use xlink:href="#DejaVuSans-30" x="159.033203"/>
      </g>
     </g>
    </g>
    <g id="ytick_8">
     <g id="line2d_33">
      <path d="M 69.59 17.526021 
L 450 17.526021 
" clip-path="url(#pe30f7acf3b)" style="fill: none; stroke: #b0b0b0; stroke-width: 0.8; stroke-linecap: square"/>
     </g>
     <g id="line2d_34">
      <g>
       <use xlink:href="#mb7946d1954" x="69.59" y="17.526021" style="stroke: #000000; stroke-width: 0.8"/>
      </g>
     </g>
     <g id="text_18">
      <!-- 1.75 -->
      <g transform="translate(29.191563 23.224849)scale(0.15 -0.15)">
       <use xlink:href="#DejaVuSans-31"/>
       <use xlink:href="#DejaVuSans-2e" x="63.623047"/>
       <use xlink:href="#DejaVuSans-37" x="95.410156"/>
       <use xlink:href="#DejaVuSans-35" x="159.033203"/>
      </g>
     </g>
    </g>
    <g id="text_19">
     <!-- y -->
     <g transform="translate(22.072031 157.339063)rotate(-90)scale(0.15 -0.15)">
      <defs>
       <path id="DejaVuSans-79" d="M 2059 -325 
Q 1816 -950 1584 -1140 
Q 1353 -1331 966 -1331 
L 506 -1331 
L 506 -850 
L 844 -850 
Q 1081 -850 1212 -737 
Q 1344 -625 1503 -206 
L 1606 56 
L 191 3500 
L 800 3500 
L 1894 763 
L 2988 3500 
L 3597 3500 
L 2059 -325 
z
" transform="scale(0.015625)"/>
      </defs>
      <use xlink:href="#DejaVuSans-79"/>
     </g>
    </g>
   </g>
   <g id="line2d_35">
    <path d="M 86.881364 133.559265 
L 89.202352 141.542984 
L 91.52334 148.924291 
L 93.844329 155.762301 
L 96.165317 162.109055 
L 98.486306 168.010507 
L 100.807294 173.507361 
L 103.128282 178.635774 
L 105.449271 183.427953 
L 107.770259 187.912661 
L 110.091248 192.11565 
L 112.412236 196.060031 
L 114.733225 199.766593 
L 117.054213 203.254076 
L 121.69619 209.637929 
L 126.338167 215.328833 
L 130.980143 220.423567 
L 135.62212 225.002584 
L 140.264097 229.133212 
L 144.906074 232.872139 
L 149.548051 236.26737 
L 154.190027 239.359774 
L 158.832004 242.184322 
L 163.473981 244.771078 
L 168.115958 247.146005 
L 172.757935 249.331615 
L 179.7209 252.29725 
L 186.683865 254.936549 
L 193.64683 257.295691 
L 200.609796 259.41297 
L 207.572761 261.32035 
L 216.856714 263.582819 
L 226.140668 265.571896 
L 235.424622 267.329921 
L 244.708575 268.89134 
L 256.313517 270.609207 
L 267.918459 272.108379 
L 281.84439 273.668329 
L 295.77032 275.012864 
L 312.017239 276.359343 
L 330.585146 277.661387 
L 351.474042 278.886367 
L 374.683926 280.014171 
L 400.214799 281.034979 
L 430.387648 282.014826 
L 432.708636 282.081818 
L 432.708636 282.081818 
" clip-path="url(#pe30f7acf3b)" style="fill: none; stroke: #1f77b4; stroke-width: 1.5; stroke-linecap: square"/>
   </g>
   <g id="line2d_36">
    <path d="M 86.881364 133.559265 
L 93.844329 129.512713 
L 103.128282 124.418852 
L 112.412236 119.623426 
L 121.69619 115.086226 
L 130.980143 110.775068 
L 142.585085 105.66451 
L 154.190027 100.825036 
L 165.794969 96.223328 
L 177.399912 91.832171 
L 191.325842 86.809228 
L 205.251772 82.024994 
L 219.177703 77.452981 
L 235.424622 72.357938 
L 251.671541 67.492637 
L 270.239448 62.182663 
L 288.807355 57.111042 
L 309.696251 51.659319 
L 330.585146 46.44787 
L 351.474042 41.451853 
L 374.683926 36.12799 
L 400.214799 30.520169 
L 425.745671 25.146291 
L 432.708636 23.718182 
L 432.708636 23.718182 
" clip-path="url(#pe30f7acf3b)" style="fill: none; stroke: #ff7f0e; stroke-width: 1.5; stroke-linecap: square"/>
   </g>
   <g id="patch_3">
    <path d="M 69.59 295 
L 69.59 10.8 
" style="fill: none; stroke: #000000; stroke-width: 0.8; stroke-linejoin: miter; stroke-linecap: square"/>
   </g>
   <g id="patch_4">
    <path d="M 450 295 
L 450 10.8 
" style="fill: none; stroke: #000000; stroke-width: 0.8; stroke-linejoin: miter; stroke-linecap: square"/>
   </g>
   <g id="patch_5">
    <path d="M 69.59 295 
L 450 295 
" style="fill: none; stroke: #000000; stroke-width: 0.8; stroke-linejoin: miter; stroke-linecap: square"/>
   </g>
   <g id="patch_6">
    <path d="M 69.59 10.8 
L 450 10.8 
" style="fill: none; stroke: #000000; stroke-width: 0.8; stroke-linejoin: miter; stroke-linecap: square"/>
   </g>
  </g>
 </g>
 <defs>
  <clipPath id="pe30f7acf3b">
   <rect x="69.59" y="10.8" width="380.41" height="284.2"/>
  </clipPath>
 </defs>
</svg>
