<?xml version="1.0" encoding="utf-8" standalone="no"?>
<!DOCTYPE svg PUBLIC "-//W3C//DTD SVG 1.1//EN"
  "http://www.w3.org/Graphics/SVG/1.1/DTD/svg11.dtd">
<svg xmlns:xlink="http://www.w3.org/1999/xlink" width="460.8pt" height="345.6pt" viewBox="0 0 460.8 345.6" xmlns="http://www.w3.org/2000/svg" version="1.1">
 <metadata>
  <rdf:RDF xmlns:dc="http://purl.org/dc/elements/1.1/" xmlns:cc="http://creativecommons.org/ns#" xmlns:rdf="http://www.w3.org/1999/02/22-rdf-syntax-ns#">
   <cc:Work>
    <dc:type rdf:resource="http://purl.org/dc/dcmitype/StillImage"/>
    <dc:date>2022-05-16T02:04:13.605093</dc:date>
    <dc:format>image/svg+xml</dc:format>
    <dc:creator>
     <cc:Agent>
      <dc:title>Matplotlib v3.5.2, https://matplotlib.org/</dc:title>
     </cc:Agent>
    </dc:creator>
   </cc:Work>
  </rdf:RDF>
 </metadata>
 <defs>
  <style type="text/css">*{stroke-linejoin: round; stroke-linecap: butt}</style>
 </defs>
 <g id="figure_1">
  <g id="patch_1">
   <path d="M 0 345.6 
L 460.8 345.6 
L 460.8 0 
L 0 0 
z
" style="fill: #ffffff"/>
  </g>
  <g id="axes_1">
   <g id="patch_2">
    <path d="M 50.6 289.24 
L 450 289.24 
L 450 10.8 
L 50.6 10.8 
z
" style="fill: #ffffff"/>
   </g>
   <g id="PolyCollection_1">
    <path d="M 191.001233 131.45491 
L 191.001233 204.503843 
L 192.825811 204.867271 
L 194.650388 205.230699 
L 196.474966 205.594126 
L 198.299543 205.957554 
L 200.124121 206.320981 
L 201.948698 206.684409 
L 203.773275 207.047836 
L 205.597853 207.411264 
L 207.42243 207.774691 
L 209.247008 208.138119 
L 211.071585 208.501546 
L 212.896163 208.864974 
L 214.72074 209.228401 
L 216.545317 209.591829 
L 218.369895 209.955256 
L 220.194472 210.318684 
L 222.01905 210.682111 
L 223.843627 211.045539 
L 225.668205 211.408966 
L 227.492782 211.772394 
L 229.31736 212.135822 
L 231.141937 212.499249 
L 232.966514 212.862677 
L 234.791092 213.226104 
L 236.615669 213.589532 
L 238.440247 213.952959 
L 240.264824 214.316387 
L 242.089402 214.679814 
L 243.913979 215.043242 
L 245.738556 215.406669 
L 247.563134 215.770097 
L 249.387711 216.133524 
L 251.212289 216.496952 
L 253.036866 216.860379 
L 254.861444 217.223807 
L 256.686021 217.587234 
L 258.510598 217.950662 
L 260.335176 218.314089 
L 262.159753 218.677517 
L 263.984331 219.040945 
L 265.808908 219.404372 
L 267.633486 219.7678 
L 269.458063 220.131227 
L 271.28264 220.494655 
L 273.107218 220.858082 
L 274.931795 221.22151 
L 276.756373 221.584937 
L 278.58095 221.948365 
L 280.405528 222.311792 
L 282.230105 222.67522 
L 284.054683 223.038647 
L 285.87926 223.402075 
L 287.703837 223.765502 
L 289.528415 224.12893 
L 291.352992 224.492357 
L 293.17757 224.855785 
L 295.002147 225.219213 
L 296.826725 225.58264 
L 298.651302 225.946068 
L 300.475879 226.309495 
L 302.300457 226.672923 
L 304.125034 227.03635 
L 305.949612 227.399778 
L 307.774189 227.763205 
L 309.598767 228.126633 
L 311.423344 228.49006 
L 313.247921 228.853488 
L 315.072499 229.216915 
L 316.897076 229.580343 
L 318.721654 229.94377 
L 320.546231 230.307198 
L 322.370809 230.670625 
L 324.195386 231.034053 
L 326.019963 231.39748 
L 327.844541 231.760908 
L 329.669118 232.124336 
L 331.493696 232.487763 
L 333.318273 232.851191 
L 335.142851 233.214618 
L 336.967428 233.578046 
L 338.792005 233.941473 
L 340.616583 234.304901 
L 342.44116 234.668328 
L 344.265738 235.031756 
L 346.090315 235.395183 
L 347.914893 235.758611 
L 349.73947 236.122038 
L 351.564048 236.485466 
L 353.388625 236.848893 
L 355.213202 237.212321 
L 357.03778 237.575748 
L 358.862357 237.939176 
L 360.686935 238.302603 
L 362.511512 238.666031 
L 364.33609 239.029459 
L 366.160667 239.392886 
L 367.985244 239.756314 
L 369.809822 240.119741 
L 371.634399 240.483169 
L 373.458977 240.846596 
L 375.283554 241.210024 
L 377.108132 241.573451 
L 378.932709 241.936879 
L 380.757286 242.300306 
L 382.581864 242.663734 
L 384.406441 243.027161 
L 386.231019 243.390589 
L 388.055596 243.754016 
L 389.880174 244.117444 
L 391.704751 244.480871 
L 393.529328 244.844299 
L 395.353906 245.207727 
L 397.178483 245.571154 
L 399.003061 245.934582 
L 400.827638 246.298009 
L 402.652216 246.661437 
L 404.476793 247.024864 
L 406.30137 247.388292 
L 408.125948 247.751719 
L 409.950525 248.115147 
L 411.775103 248.478574 
L 413.59968 248.842002 
L 415.424258 249.205429 
L 417.248835 249.568857 
L 419.073413 249.932284 
L 420.89799 250.295712 
L 422.722567 250.659139 
L 424.547145 251.022567 
L 426.371722 251.385994 
L 428.1963 251.749422 
L 430.020877 252.11285 
L 431.845455 252.476277 
L 431.845455 35.510043 
L 431.845455 35.510043 
L 430.020877 36.236898 
L 428.1963 36.963753 
L 426.371722 37.690608 
L 424.547145 38.417464 
L 422.722567 39.144319 
L 420.89799 39.871174 
L 419.073413 40.598029 
L 417.248835 41.324884 
L 415.424258 42.051739 
L 413.59968 42.778594 
L 411.775103 43.505449 
L 409.950525 44.232304 
L 408.125948 44.959159 
L 406.30137 45.686014 
L 404.476793 46.412869 
L 402.652216 47.139724 
L 400.827638 47.866579 
L 399.003061 48.593434 
L 397.178483 49.320289 
L 395.353906 50.047144 
L 393.529328 50.773999 
L 391.704751 51.500854 
L 389.880174 52.22771 
L 388.055596 52.954565 
L 386.231019 53.68142 
L 384.406441 54.408275 
L 382.581864 55.13513 
L 380.757286 55.861985 
L 378.932709 56.58884 
L 377.108132 57.315695 
L 375.283554 58.04255 
L 373.458977 58.769405 
L 371.634399 59.49626 
L 369.809822 60.223115 
L 367.985244 60.94997 
L 366.160667 61.676825 
L 364.33609 62.40368 
L 362.511512 63.130535 
L 360.686935 63.85739 
L 358.862357 64.584245 
L 357.03778 65.311101 
L 355.213202 66.037956 
L 353.388625 66.764811 
L 351.564048 67.491666 
L 349.73947 68.218521 
L 347.914893 68.945376 
L 346.090315 69.672231 
L 344.265738 70.399086 
L 342.44116 71.125941 
L 340.616583 71.852796 
L 338.792005 72.579651 
L 336.967428 73.306506 
L 335.142851 74.033361 
L 333.318273 74.760216 
L 331.493696 75.487071 
L 329.669118 76.213926 
L 327.844541 76.940781 
L 326.019963 77.667636 
L 324.195386 78.394492 
L 322.370809 79.121347 
L 320.546231 79.848202 
L 318.721654 80.575057 
L 316.897076 81.301912 
L 315.072499 82.028767 
L 313.247921 82.755622 
L 311.423344 83.482477 
L 309.598767 84.209332 
L 307.774189 84.936187 
L 305.949612 85.663042 
L 304.125034 86.389897 
L 302.300457 87.116752 
L 300.475879 87.843607 
L 298.651302 88.570462 
L 296.826725 89.297317 
L 295.002147 90.024172 
L 293.17757 90.751027 
L 291.352992 91.477882 
L 289.528415 92.204738 
L 287.703837 92.931593 
L 285.87926 93.658448 
L 284.054683 94.385303 
L 282.230105 95.112158 
L 280.405528 95.839013 
L 278.58095 96.565868 
L 276.756373 97.292723 
L 274.931795 98.019578 
L 273.107218 98.746433 
L 271.28264 99.473288 
L 269.458063 100.200143 
L 267.633486 100.926998 
L 265.808908 101.653853 
L 263.984331 102.380708 
L 262.159753 103.107563 
L 260.335176 103.834418 
L 258.510598 104.561273 
L 256.686021 105.288129 
L 254.861444 106.014984 
L 253.036866 106.741839 
L 251.212289 107.468694 
L 249.387711 108.195549 
L 247.563134 108.922404 
L 245.738556 109.649259 
L 243.913979 110.376114 
L 242.089402 111.102969 
L 240.264824 111.829824 
L 238.440247 112.556679 
L 236.615669 113.283534 
L 234.791092 114.010389 
L 232.966514 114.737244 
L 231.141937 115.464099 
L 229.31736 116.190954 
L 227.492782 116.917809 
L 225.668205 117.644664 
L 223.843627 118.37152 
L 222.01905 119.098375 
L 220.194472 119.82523 
L 218.369895 120.552085 
L 216.545317 121.27894 
L 214.72074 122.005795 
L 212.896163 122.73265 
L 211.071585 123.459505 
L 209.247008 124.18636 
L 207.42243 124.913215 
L 205.597853 125.64007 
L 203.773275 126.366925 
L 201.948698 127.09378 
L 200.124121 127.820635 
L 198.299543 128.54749 
L 196.474966 129.274345 
L 194.650388 130.0012 
L 192.825811 130.728055 
L 191.001233 131.45491 
z
" clip-path="url(#p78d6d5facd)" style="fill: #1f77b4"/>
   </g>
   <g id="PolyCollection_2">
    <defs>
     <path id="mfb6cc3aec3" d="M 371.634399 -286.10374 
L 371.634399 -105.116831 
L 373.458977 -104.753404 
L 375.283554 -104.389976 
L 377.108132 -104.026549 
L 378.932709 -103.663121 
L 380.757286 -103.299694 
L 382.581864 -102.936266 
L 384.406441 -102.572839 
L 386.231019 -102.209411 
L 388.055596 -101.845984 
L 389.880174 -101.482556 
L 391.704751 -101.119129 
L 393.529328 -100.755701 
L 395.353906 -100.392273 
L 397.178483 -100.028846 
L 399.003061 -99.665418 
L 400.827638 -99.301991 
L 402.652216 -98.938563 
L 404.476793 -98.575136 
L 406.30137 -98.211708 
L 408.125948 -97.848281 
L 409.950525 -97.484853 
L 411.775103 -97.121426 
L 413.59968 -96.757998 
L 415.424258 -96.394571 
L 417.248835 -96.031143 
L 419.073413 -95.667716 
L 420.89799 -95.304288 
L 422.722567 -94.940861 
L 424.547145 -94.577433 
L 426.371722 -94.214006 
L 428.1963 -93.850578 
L 430.020877 -93.48715 
L 431.845455 -93.123723 
L 431.845455 -310.089957 
L 431.845455 -310.089957 
L 430.020877 -309.363102 
L 428.1963 -308.636247 
L 426.371722 -307.909392 
L 424.547145 -307.182536 
L 422.722567 -306.455681 
L 420.89799 -305.728826 
L 419.073413 -305.001971 
L 417.248835 -304.275116 
L 415.424258 -303.548261 
L 413.59968 -302.821406 
L 411.775103 -302.094551 
L 409.950525 -301.367696 
L 408.125948 -300.640841 
L 406.30137 -299.913986 
L 404.476793 -299.187131 
L 402.652216 -298.460276 
L 400.827638 -297.733421 
L 399.003061 -297.006566 
L 397.178483 -296.279711 
L 395.353906 -295.552856 
L 393.529328 -294.826001 
L 391.704751 -294.099146 
L 389.880174 -293.37229 
L 388.055596 -292.645435 
L 386.231019 -291.91858 
L 384.406441 -291.191725 
L 382.581864 -290.46487 
L 380.757286 -289.738015 
L 378.932709 -289.01116 
L 377.108132 -288.284305 
L 375.283554 -287.55745 
L 373.458977 -286.830595 
L 371.634399 -286.10374 
z
" style="stroke: #ffffff"/>
    </defs>
    <g clip-path="url(#p78d6d5facd)">
     <use xlink:href="#mfb6cc3aec3" x="0" y="345.6" style="fill: #ffffff; stroke: #ffffff"/>
    </g>
   </g>
   <g id="matplotlib.axis_1">
    <g id="xtick_1">
     <g id="line2d_1">
      <path d="M 68.754545 289.24 
L 68.754545 10.8 
" clip-path="url(#p78d6d5facd)" style="fill: none; stroke: #b0b0b0; stroke-width: 0.8; stroke-linecap: square"/>
     </g>
     <g id="line2d_2">
      <defs>
       <path id="m5500cf7543" d="M 0 0 
L 0 3.5 
" style="stroke: #000000; stroke-width: 0.8"/>
      </defs>
      <g>
       <use xlink:href="#m5500cf7543" x="68.754545" y="289.24" style="stroke: #000000; stroke-width: 0.8"/>
      </g>
     </g>
     <g id="text_1">
      <!-- 0 -->
      <g transform="translate(63.028295 309.917187)scale(0.18 -0.18)">
       <defs>
        <path id="DejaVuSans-30" d="M 2034 4250 
Q 1547 4250 1301 3770 
Q 1056 3291 1056 2328 
Q 1056 1369 1301 889 
Q 1547 409 2034 409 
Q 2525 409 2770 889 
Q 3016 1369 3016 2328 
Q 3016 3291 2770 3770 
Q 2525 4250 2034 4250 
z
M 2034 4750 
Q 2819 4750 3233 4129 
Q 3647 3509 3647 2328 
Q 3647 1150 3233 529 
Q 2819 -91 2034 -91 
Q 1250 -91 836 529 
Q 422 1150 422 2328 
Q 422 3509 836 4129 
Q 1250 4750 2034 4750 
z
" transform="scale(0.015625)"/>
       </defs>
       <use xlink:href="#DejaVuSans-30"/>
      </g>
     </g>
    </g>
    <g id="xtick_2">
     <g id="line2d_3">
      <path d="M 129.269697 289.24 
L 129.269697 10.8 
" clip-path="url(#p78d6d5facd)" style="fill: none; stroke: #b0b0b0; stroke-width: 0.8; stroke-linecap: square"/>
     </g>
     <g id="line2d_4">
      <g>
       <use xlink:href="#m5500cf7543" x="129.269697" y="289.24" style="stroke: #000000; stroke-width: 0.8"/>
      </g>
     </g>
     <g id="text_2">
      <!-- 1 -->
      <g transform="translate(123.543447 309.917187)scale(0.18 -0.18)">
       <defs>
        <path id="DejaVuSans-31" d="M 794 531 
L 1825 531 
L 1825 4091 
L 703 3866 
L 703 4441 
L 1819 4666 
L 2450 4666 
L 2450 531 
L 3481 531 
L 3481 0 
L 794 0 
L 794 531 
z
" transform="scale(0.015625)"/>
       </defs>
       <use xlink:href="#DejaVuSans-31"/>
      </g>
     </g>
    </g>
    <g id="xtick_3">
     <g id="line2d_5">
      <path d="M 189.784848 289.24 
L 189.784848 10.8 
" clip-path="url(#p78d6d5facd)" style="fill: none; stroke: #b0b0b0; stroke-width: 0.8; stroke-linecap: square"/>
     </g>
     <g id="line2d_6">
      <g>
       <use xlink:href="#m5500cf7543" x="189.784848" y="289.24" style="stroke: #000000; stroke-width: 0.8"/>
      </g>
     </g>
     <g id="text_3">
      <!-- 2 -->
      <g transform="translate(184.058598 309.917187)scale(0.18 -0.18)">
       <defs>
        <path id="DejaVuSans-32" d="M 1228 531 
L 3431 531 
L 3431 0 
L 469 0 
L 469 531 
Q 828 903 1448 1529 
Q 2069 2156 2228 2338 
Q 2531 2678 2651 2914 
Q 2772 3150 2772 3378 
Q 2772 3750 2511 3984 
Q 2250 4219 1831 4219 
Q 1534 4219 1204 4116 
Q 875 4013 500 3803 
L 500 4441 
Q 881 4594 1212 4672 
Q 1544 4750 1819 4750 
Q 2544 4750 2975 4387 
Q 3406 4025 3406 3419 
Q 3406 3131 3298 2873 
Q 3191 2616 2906 2266 
Q 2828 2175 2409 1742 
Q 1991 1309 1228 531 
z
" transform="scale(0.015625)"/>
       </defs>
       <use xlink:href="#DejaVuSans-32"/>
      </g>
     </g>
    </g>
    <g id="xtick_4">
     <g id="line2d_7">
      <path d="M 250.3 289.24 
L 250.3 10.8 
" clip-path="url(#p78d6d5facd)" style="fill: none; stroke: #b0b0b0; stroke-width: 0.8; stroke-linecap: square"/>
     </g>
     <g id="line2d_8">
      <g>
       <use xlink:href="#m5500cf7543" x="250.3" y="289.24" style="stroke: #000000; stroke-width: 0.8"/>
      </g>
     </g>
     <g id="text_4">
      <!-- 3 -->
      <g transform="translate(244.57375 309.917187)scale(0.18 -0.18)">
       <defs>
        <path id="DejaVuSans-33" d="M 2597 2516 
Q 3050 2419 3304 2112 
Q 3559 1806 3559 1356 
Q 3559 666 3084 287 
Q 2609 -91 1734 -91 
Q 1441 -91 1130 -33 
Q 819 25 488 141 
L 488 750 
Q 750 597 1062 519 
Q 1375 441 1716 441 
Q 2309 441 2620 675 
Q 2931 909 2931 1356 
Q 2931 1769 2642 2001 
Q 2353 2234 1838 2234 
L 1294 2234 
L 1294 2753 
L 1863 2753 
Q 2328 2753 2575 2939 
Q 2822 3125 2822 3475 
Q 2822 3834 2567 4026 
Q 2313 4219 1838 4219 
Q 1578 4219 1281 4162 
Q 984 4106 628 3988 
L 628 4550 
Q 988 4650 1302 4700 
Q 1616 4750 1894 4750 
Q 2613 4750 3031 4423 
Q 3450 4097 3450 3541 
Q 3450 3153 3228 2886 
Q 3006 2619 2597 2516 
z
" transform="scale(0.015625)"/>
       </defs>
       <use xlink:href="#DejaVuSans-33"/>
      </g>
     </g>
    </g>
    <g id="xtick_5">
     <g id="line2d_9">
      <path d="M 310.815152 289.24 
L 310.815152 10.8 
" clip-path="url(#p78d6d5facd)" style="fill: none; stroke: #b0b0b0; stroke-width: 0.8; stroke-linecap: square"/>
     </g>
     <g id="line2d_10">
      <g>
       <use xlink:href="#m5500cf7543" x="310.815152" y="289.24" style="stroke: #000000; stroke-width: 0.8"/>
      </g>
     </g>
     <g id="text_5">
      <!-- 4 -->
      <g transform="translate(305.088902 309.917187)scale(0.18 -0.18)">
       <defs>
        <path id="DejaVuSans-34" d="M 2419 4116 
L 825 1625 
L 2419 1625 
L 2419 4116 
z
M 2253 4666 
L 3047 4666 
L 3047 1625 
L 3713 1625 
L 3713 1100 
L 3047 1100 
L 3047 0 
L 2419 0 
L 2419 1100 
L 313 1100 
L 313 1709 
L 2253 4666 
z
" transform="scale(0.015625)"/>
       </defs>
       <use xlink:href="#DejaVuSans-34"/>
      </g>
     </g>
    </g>
    <g id="xtick_6">
     <g id="line2d_11">
      <path d="M 371.330303 289.24 
L 371.330303 10.8 
" clip-path="url(#p78d6d5facd)" style="fill: none; stroke: #b0b0b0; stroke-width: 0.8; stroke-linecap: square"/>
     </g>
     <g id="line2d_12">
      <g>
       <use xlink:href="#m5500cf7543" x="371.330303" y="289.24" style="stroke: #000000; stroke-width: 0.8"/>
      </g>
     </g>
     <g id="text_6">
      <!-- 5 -->
      <g transform="translate(365.604053 309.917187)scale(0.18 -0.18)">
       <defs>
        <path id="DejaVuSans-35" d="M 691 4666 
L 3169 4666 
L 3169 4134 
L 1269 4134 
L 1269 2991 
Q 1406 3038 1543 3061 
Q 1681 3084 1819 3084 
Q 2600 3084 3056 2656 
Q 3513 2228 3513 1497 
Q 3513 744 3044 326 
Q 2575 -91 1722 -91 
Q 1428 -91 1123 -41 
Q 819 9 494 109 
L 494 744 
Q 775 591 1075 516 
Q 1375 441 1709 441 
Q 2250 441 2565 725 
Q 2881 1009 2881 1497 
Q 2881 1984 2565 2268 
Q 2250 2553 1709 2553 
Q 1456 2553 1204 2497 
Q 953 2441 691 2322 
L 691 4666 
z
" transform="scale(0.015625)"/>
       </defs>
       <use xlink:href="#DejaVuSans-35"/>
      </g>
     </g>
    </g>
    <g id="xtick_7">
     <g id="line2d_13">
      <path d="M 431.845455 289.24 
L 431.845455 10.8 
" clip-path="url(#p78d6d5facd)" style="fill: none; stroke: #b0b0b0; stroke-width: 0.8; stroke-linecap: square"/>
     </g>
     <g id="line2d_14">
      <g>
       <use xlink:href="#m5500cf7543" x="431.845455" y="289.24" style="stroke: #000000; stroke-width: 0.8"/>
      </g>
     </g>
     <g id="text_7">
      <!-- 6 -->
      <g transform="translate(426.119205 309.917187)scale(0.18 -0.18)">
       <defs>
        <path id="DejaVuSans-36" d="M 2113 2584 
Q 1688 2584 1439 2293 
Q 1191 2003 1191 1497 
Q 1191 994 1439 701 
Q 1688 409 2113 409 
Q 2538 409 2786 701 
Q 3034 994 3034 1497 
Q 3034 2003 2786 2293 
Q 2538 2584 2113 2584 
z
M 3366 4563 
L 3366 3988 
Q 3128 4100 2886 4159 
Q 2644 4219 2406 4219 
Q 1781 4219 1451 3797 
Q 1122 3375 1075 2522 
Q 1259 2794 1537 2939 
Q 1816 3084 2150 3084 
Q 2853 3084 3261 2657 
Q 3669 2231 3669 1497 
Q 3669 778 3244 343 
Q 2819 -91 2113 -91 
Q 1303 -91 875 529 
Q 447 1150 447 2328 
Q 447 3434 972 4092 
Q 1497 4750 2381 4750 
Q 2619 4750 2861 4703 
Q 3103 4656 3366 4563 
z
" transform="scale(0.015625)"/>
       </defs>
       <use xlink:href="#DejaVuSans-36"/>
      </g>
     </g>
    </g>
    <g id="text_8">
     <!-- x -->
     <g transform="translate(244.973125 331.337812)scale(0.18 -0.18)">
      <defs>
       <path id="DejaVuSans-78" d="M 3513 3500 
L 2247 1797 
L 3578 0 
L 2900 0 
L 1881 1375 
L 863 0 
L 184 0 
L 1544 1831 
L 300 3500 
L 978 3500 
L 1906 2253 
L 2834 3500 
L 3513 3500 
z
" transform="scale(0.015625)"/>
      </defs>
      <use xlink:href="#DejaVuSans-78"/>
     </g>
    </g>
   </g>
   <g id="matplotlib.axis_2">
    <g id="ytick_1">
     <g id="line2d_15">
      <path d="M 50.6 276.583636 
L 450 276.583636 
" clip-path="url(#p78d6d5facd)" style="fill: none; stroke: #b0b0b0; stroke-width: 0.8; stroke-linecap: square"/>
     </g>
     <g id="line2d_16">
      <defs>
       <path id="m628132b4f6" d="M 0 0 
L -3.5 0 
" style="stroke: #000000; stroke-width: 0.8"/>
      </defs>
      <g>
       <use xlink:href="#m628132b4f6" x="50.6" y="276.583636" style="stroke: #000000; stroke-width: 0.8"/>
      </g>
     </g>
     <g id="text_9">
      <!-- 0 -->
      <g transform="translate(32.1475 283.42223)scale(0.18 -0.18)">
       <use xlink:href="#DejaVuSans-30"/>
      </g>
     </g>
    </g>
    <g id="ytick_2">
     <g id="line2d_17">
      <path d="M 50.6 240.422597 
L 450 240.422597 
" clip-path="url(#p78d6d5facd)" style="fill: none; stroke: #b0b0b0; stroke-width: 0.8; stroke-linecap: square"/>
     </g>
     <g id="line2d_18">
      <g>
       <use xlink:href="#m628132b4f6" x="50.6" y="240.422597" style="stroke: #000000; stroke-width: 0.8"/>
      </g>
     </g>
     <g id="text_10">
      <!-- 1 -->
      <g transform="translate(32.1475 247.261191)scale(0.18 -0.18)">
       <use xlink:href="#DejaVuSans-31"/>
      </g>
     </g>
    </g>
    <g id="ytick_3">
     <g id="line2d_19">
      <path d="M 50.6 204.261558 
L 450 204.261558 
" clip-path="url(#p78d6d5facd)" style="fill: none; stroke: #b0b0b0; stroke-width: 0.8; stroke-linecap: square"/>
     </g>
     <g id="line2d_20">
      <g>
       <use xlink:href="#m628132b4f6" x="50.6" y="204.261558" style="stroke: #000000; stroke-width: 0.8"/>
      </g>
     </g>
     <g id="text_11">
      <!-- 2 -->
      <g transform="translate(32.1475 211.100152)scale(0.18 -0.18)">
       <use xlink:href="#DejaVuSans-32"/>
      </g>
     </g>
    </g>
    <g id="ytick_4">
     <g id="line2d_21">
      <path d="M 50.6 168.100519 
L 450 168.100519 
" clip-path="url(#p78d6d5facd)" style="fill: none; stroke: #b0b0b0; stroke-width: 0.8; stroke-linecap: square"/>
     </g>
     <g id="line2d_22">
      <g>
       <use xlink:href="#m628132b4f6" x="50.6" y="168.100519" style="stroke: #000000; stroke-width: 0.8"/>
      </g>
     </g>
     <g id="text_12">
      <!-- 3 -->
      <g transform="translate(32.1475 174.939113)scale(0.18 -0.18)">
       <use xlink:href="#DejaVuSans-33"/>
      </g>
     </g>
    </g>
    <g id="ytick_5">
     <g id="line2d_23">
      <path d="M 50.6 131.939481 
L 450 131.939481 
" clip-path="url(#p78d6d5facd)" style="fill: none; stroke: #b0b0b0; stroke-width: 0.8; stroke-linecap: square"/>
     </g>
     <g id="line2d_24">
      <g>
       <use xlink:href="#m628132b4f6" x="50.6" y="131.939481" style="stroke: #000000; stroke-width: 0.8"/>
      </g>
     </g>
     <g id="text_13">
      <!-- 4 -->
      <g transform="translate(32.1475 138.778074)scale(0.18 -0.18)">
       <use xlink:href="#DejaVuSans-34"/>
      </g>
     </g>
    </g>
    <g id="ytick_6">
     <g id="line2d_25">
      <path d="M 50.6 95.778442 
L 450 95.778442 
" clip-path="url(#p78d6d5facd)" style="fill: none; stroke: #b0b0b0; stroke-width: 0.8; stroke-linecap: square"/>
     </g>
     <g id="line2d_26">
      <g>
       <use xlink:href="#m628132b4f6" x="50.6" y="95.778442" style="stroke: #000000; stroke-width: 0.8"/>
      </g>
     </g>
     <g id="text_14">
      <!-- 5 -->
      <g transform="translate(32.1475 102.617035)scale(0.18 -0.18)">
       <use xlink:href="#DejaVuSans-35"/>
      </g>
     </g>
    </g>
    <g id="ytick_7">
     <g id="line2d_27">
      <path d="M 50.6 59.617403 
L 450 59.617403 
" clip-path="url(#p78d6d5facd)" style="fill: none; stroke: #b0b0b0; stroke-width: 0.8; stroke-linecap: square"/>
     </g>
     <g id="line2d_28">
      <g>
       <use xlink:href="#m628132b4f6" x="50.6" y="59.617403" style="stroke: #000000; stroke-width: 0.8"/>
      </g>
     </g>
     <g id="text_15">
      <!-- 6 -->
      <g transform="translate(32.1475 66.455996)scale(0.18 -0.18)">
       <use xlink:href="#DejaVuSans-36"/>
      </g>
     </g>
    </g>
    <g id="ytick_8">
     <g id="line2d_29">
      <path d="M 50.6 23.456364 
L 450 23.456364 
" clip-path="url(#p78d6d5facd)" style="fill: none; stroke: #b0b0b0; stroke-width: 0.8; stroke-linecap: square"/>
     </g>
     <g id="line2d_30">
      <g>
       <use xlink:href="#m628132b4f6" x="50.6" y="23.456364" style="stroke: #000000; stroke-width: 0.8"/>
      </g>
     </g>
     <g id="text_16">
      <!-- 7 -->
      <g transform="translate(32.1475 30.294957)scale(0.18 -0.18)">
       <defs>
        <path id="DejaVuSans-37" d="M 525 4666 
L 3525 4666 
L 3525 4397 
L 1831 0 
L 1172 0 
L 2766 4134 
L 525 4134 
L 525 4666 
z
" transform="scale(0.015625)"/>
       </defs>
       <use xlink:href="#DejaVuSans-37"/>
      </g>
     </g>
    </g>
    <g id="text_17">
     <!-- y -->
     <g transform="translate(24.404063 155.346875)rotate(-90)scale(0.18 -0.18)">
      <defs>
       <path id="DejaVuSans-79" d="M 2059 -325 
Q 1816 -950 1584 -1140 
Q 1353 -1331 966 -1331 
L 506 -1331 
L 506 -850 
L 844 -850 
Q 1081 -850 1212 -737 
Q 1344 -625 1503 -206 
L 1606 56 
L 191 3500 
L 800 3500 
L 1894 763 
L 2988 3500 
L 3597 3500 
L 2059 -325 
z
" transform="scale(0.015625)"/>
      </defs>
      <use xlink:href="#DejaVuSans-79"/>
     </g>
    </g>
   </g>
   <g id="line2d_31">
    <path d="M 68.754545 180.154199 
L 431.845455 252.476277 
L 431.845455 252.476277 
" clip-path="url(#p78d6d5facd)" style="fill: none; stroke: #1f77b4; stroke-width: 1.5; stroke-linecap: square"/>
   </g>
   <g id="line2d_32">
    <path d="M 68.754545 180.154199 
L 431.845455 35.510043 
L 431.845455 35.510043 
" clip-path="url(#p78d6d5facd)" style="fill: none; stroke: #ff7f0e; stroke-width: 1.5; stroke-linecap: square"/>
   </g>
   <g id="LineCollection_1">
    <path d="M 189.784848 276.583636 
L 189.784848 23.456364 
" clip-path="url(#p78d6d5facd)" style="fill: none; stroke: #1f77b4; stroke-width: 1.5"/>
   </g>
   <g id="LineCollection_2">
    <path d="M 371.330303 276.583636 
L 371.330303 23.456364 
" clip-path="url(#p78d6d5facd)" style="fill: none; stroke: #1f77b4; stroke-width: 1.5"/>
   </g>
   <g id="patch_3">
    <path d="M 50.6 289.24 
L 50.6 10.8 
" style="fill: none; stroke: #000000; stroke-width: 0.8; stroke-linejoin: miter; stroke-linecap: square"/>
   </g>
   <g id="patch_4">
    <path d="M 450 289.24 
L 450 10.8 
" style="fill: none; stroke: #000000; stroke-width: 0.8; stroke-linejoin: miter; stroke-linecap: square"/>
   </g>
   <g id="patch_5">
    <path d="M 50.6 289.24 
L 450 289.24 
" style="fill: none; stroke: #000000; stroke-width: 0.8; stroke-linejoin: miter; stroke-linecap: square"/>
   </g>
   <g id="patch_6">
    <path d="M 50.6 10.8 
L 450 10.8 
" style="fill: none; stroke: #000000; stroke-width: 0.8; stroke-linejoin: miter; stroke-linecap: square"/>
   </g>
  </g>
 </g>
 <defs>
  <clipPath id="p78d6d5facd">
   <rect x="50.6" y="10.8" width="399.4" height="278.44"/>
  </clipPath>
 </defs>
</svg>
