<?xml version="1.0" encoding="utf-8" standalone="no"?>
<!DOCTYPE svg PUBLIC "-//W3C//DTD SVG 1.1//EN"
  "http://www.w3.org/Graphics/SVG/1.1/DTD/svg11.dtd">
<svg xmlns:xlink="http://www.w3.org/1999/xlink" width="460.8pt" height="345.6pt" viewBox="0 0 460.8 345.6" xmlns="http://www.w3.org/2000/svg" version="1.1">
 <metadata>
  <rdf:RDF xmlns:dc="http://purl.org/dc/elements/1.1/" xmlns:cc="http://creativecommons.org/ns#" xmlns:rdf="http://www.w3.org/1999/02/22-rdf-syntax-ns#">
   <cc:Work>
    <dc:type rdf:resource="http://purl.org/dc/dcmitype/StillImage"/>
    <dc:date>2022-05-20T00:02:20.888984</dc:date>
    <dc:format>image/svg+xml</dc:format>
    <dc:creator>
     <cc:Agent>
      <dc:title>Matplotlib v3.5.2, https://matplotlib.org/</dc:title>
     </cc:Agent>
    </dc:creator>
   </cc:Work>
  </rdf:RDF>
 </metadata>
 <defs>
  <style type="text/css">*{stroke-linejoin: round; stroke-linecap: butt}</style>
 </defs>
 <g id="figure_1">
  <g id="patch_1">
   <path d="M 0 345.6 
L 460.8 345.6 
L 460.8 0 
L 0 0 
z
" style="fill: #ffffff"/>
  </g>
  <g id="axes_1">
   <g id="patch_2">
    <path d="M 58.34 295 
L 438.075 295 
L 438.075 16.56 
L 58.34 16.56 
z
" style="fill: #ffffff"/>
   </g>
   <g id="PolyCollection_1">
    <path d="M 153.750804 72.248 
L 153.750804 238.892241 
L 155.65902 237.213206 
L 157.567236 235.534171 
L 159.475452 233.855136 
L 161.383668 232.176101 
L 163.291884 230.497065 
L 165.200101 228.81803 
L 167.108317 227.138995 
L 169.016533 225.45996 
L 170.924749 223.780925 
L 172.832965 222.101889 
L 174.741181 220.422854 
L 176.649397 218.743819 
L 178.557613 217.064784 
L 180.465829 215.385749 
L 182.374045 213.706714 
L 184.282261 212.027678 
L 186.190477 210.348643 
L 188.098693 208.669608 
L 190.00691 206.990573 
L 191.915126 205.311538 
L 193.823342 203.632503 
L 195.731558 201.953467 
L 197.639774 200.274432 
L 199.54799 198.595397 
L 201.456206 196.916362 
L 203.364422 195.237327 
L 205.272638 193.558291 
L 207.180854 191.879256 
L 209.08907 190.200221 
L 210.997286 188.521186 
L 212.905503 186.842151 
L 214.813719 185.163116 
L 216.721935 183.48408 
L 218.630151 181.805045 
L 220.538367 180.12601 
L 222.446583 178.446975 
L 224.354799 176.76794 
L 226.263015 175.088905 
L 228.171231 173.409869 
L 230.079447 171.730834 
L 231.987663 170.051799 
L 233.895879 168.372764 
L 235.804095 166.693729 
L 237.712312 165.014693 
L 239.620528 163.335658 
L 241.528744 161.656623 
L 243.43696 159.977588 
L 245.345176 158.298553 
L 247.253392 156.619518 
L 249.161608 154.940482 
L 251.069824 153.261447 
L 252.97804 151.582412 
L 254.886256 149.903377 
L 256.794472 148.224342 
L 258.702688 146.545307 
L 260.610905 144.866271 
L 262.519121 143.187236 
L 264.427337 141.508201 
L 266.335553 139.829166 
L 268.243769 138.150131 
L 270.151985 136.471095 
L 272.060201 134.79206 
L 273.968417 133.113025 
L 275.876633 131.43399 
L 277.784849 129.754955 
L 279.693065 128.07592 
L 281.601281 126.396884 
L 283.509497 124.717849 
L 285.417714 123.038814 
L 287.32593 121.359779 
L 289.234146 119.680744 
L 291.142362 118.001709 
L 293.050578 116.322673 
L 294.958794 114.643638 
L 296.86701 112.964603 
L 298.775226 111.285568 
L 300.683442 109.606533 
L 302.591658 107.927497 
L 304.499874 106.248462 
L 306.40809 104.569427 
L 308.316307 102.890392 
L 310.224523 101.211357 
L 312.132739 99.532322 
L 314.040955 97.853286 
L 315.949171 96.174251 
L 317.857387 94.495216 
L 319.765603 92.816181 
L 321.673819 91.137146 
L 323.582035 89.458111 
L 325.490251 87.779075 
L 327.398467 86.10004 
L 329.306683 84.421005 
L 331.214899 82.74197 
L 333.123116 81.062935 
L 335.031332 79.383899 
L 336.939548 77.704864 
L 338.847764 76.025829 
L 340.75598 74.346794 
L 342.664196 72.667759 
L 344.572412 70.988724 
L 346.480628 69.309688 
L 348.388844 67.630653 
L 350.29706 65.951618 
L 352.205276 64.272583 
L 354.113492 62.593548 
L 356.021709 60.914513 
L 357.929925 59.235477 
L 359.838141 57.556442 
L 361.746357 55.877407 
L 363.654573 54.198372 
L 365.562789 52.519337 
L 367.471005 50.840302 
L 369.379221 49.161266 
L 371.287437 47.482231 
L 373.195653 45.803196 
L 375.103869 44.124161 
L 377.012085 42.445126 
L 378.920302 40.76609 
L 380.828518 39.087055 
L 382.736734 37.40802 
L 384.64495 35.728985 
L 386.553166 34.04995 
L 388.461382 32.370915 
L 390.369598 30.691879 
L 392.277814 29.012844 
L 394.18603 27.333809 
L 396.094246 25.654774 
L 398.002462 23.975739 
L 399.910678 22.296704 
L 401.818894 20.617668 
L 403.727111 18.938633 
L 405.635327 17.259598 
L 407.543543 15.580563 
L 409.451759 13.901528 
L 411.359975 12.222492 
L 413.268191 10.543457 
L 415.176407 8.864422 
L 417.084623 7.185387 
L 418.992839 5.506352 
L 420.901055 3.827317 
L 422.809271 2.148281 
L 424.717487 0.469246 
L 426.625704 -1.209789 
L 428.53392 -2.888824 
L 430.442136 -4.567859 
L 432.350352 -6.246894 
L 434.258568 -7.92593 
L 436.166784 -9.604965 
L 438.075 -11.284 
L 438.075 72.248 
L 438.075 72.248 
L 436.166784 72.248 
L 434.258568 72.248 
L 432.350352 72.248 
L 430.442136 72.248 
L 428.53392 72.248 
L 426.625704 72.248 
L 424.717487 72.248 
L 422.809271 72.248 
L 420.901055 72.248 
L 418.992839 72.248 
L 417.084623 72.248 
L 415.176407 72.248 
L 413.268191 72.248 
L 411.359975 72.248 
L 409.451759 72.248 
L 407.543543 72.248 
L 405.635327 72.248 
L 403.727111 72.248 
L 401.818894 72.248 
L 399.910678 72.248 
L 398.002462 72.248 
L 396.094246 72.248 
L 394.18603 72.248 
L 392.277814 72.248 
L 390.369598 72.248 
L 388.461382 72.248 
L 386.553166 72.248 
L 384.64495 72.248 
L 382.736734 72.248 
L 380.828518 72.248 
L 378.920302 72.248 
L 377.012085 72.248 
L 375.103869 72.248 
L 373.195653 72.248 
L 371.287437 72.248 
L 369.379221 72.248 
L 367.471005 72.248 
L 365.562789 72.248 
L 363.654573 72.248 
L 361.746357 72.248 
L 359.838141 72.248 
L 357.929925 72.248 
L 356.021709 72.248 
L 354.113492 72.248 
L 352.205276 72.248 
L 350.29706 72.248 
L 348.388844 72.248 
L 346.480628 72.248 
L 344.572412 72.248 
L 342.664196 72.248 
L 340.75598 72.248 
L 338.847764 72.248 
L 336.939548 72.248 
L 335.031332 72.248 
L 333.123116 72.248 
L 331.214899 72.248 
L 329.306683 72.248 
L 327.398467 72.248 
L 325.490251 72.248 
L 323.582035 72.248 
L 321.673819 72.248 
L 319.765603 72.248 
L 317.857387 72.248 
L 315.949171 72.248 
L 314.040955 72.248 
L 312.132739 72.248 
L 310.224523 72.248 
L 308.316307 72.248 
L 306.40809 72.248 
L 304.499874 72.248 
L 302.591658 72.248 
L 300.683442 72.248 
L 298.775226 72.248 
L 296.86701 72.248 
L 294.958794 72.248 
L 293.050578 72.248 
L 291.142362 72.248 
L 289.234146 72.248 
L 287.32593 72.248 
L 285.417714 72.248 
L 283.509497 72.248 
L 281.601281 72.248 
L 279.693065 72.248 
L 277.784849 72.248 
L 275.876633 72.248 
L 273.968417 72.248 
L 272.060201 72.248 
L 270.151985 72.248 
L 268.243769 72.248 
L 266.335553 72.248 
L 264.427337 72.248 
L 262.519121 72.248 
L 260.610905 72.248 
L 258.702688 72.248 
L 256.794472 72.248 
L 254.886256 72.248 
L 252.97804 72.248 
L 251.069824 72.248 
L 249.161608 72.248 
L 247.253392 72.248 
L 245.345176 72.248 
L 243.43696 72.248 
L 241.528744 72.248 
L 239.620528 72.248 
L 237.712312 72.248 
L 235.804095 72.248 
L 233.895879 72.248 
L 231.987663 72.248 
L 230.079447 72.248 
L 228.171231 72.248 
L 226.263015 72.248 
L 224.354799 72.248 
L 222.446583 72.248 
L 220.538367 72.248 
L 218.630151 72.248 
L 216.721935 72.248 
L 214.813719 72.248 
L 212.905503 72.248 
L 210.997286 72.248 
L 209.08907 72.248 
L 207.180854 72.248 
L 205.272638 72.248 
L 203.364422 72.248 
L 201.456206 72.248 
L 199.54799 72.248 
L 197.639774 72.248 
L 195.731558 72.248 
L 193.823342 72.248 
L 191.915126 72.248 
L 190.00691 72.248 
L 188.098693 72.248 
L 186.190477 72.248 
L 184.282261 72.248 
L 182.374045 72.248 
L 180.465829 72.248 
L 178.557613 72.248 
L 176.649397 72.248 
L 174.741181 72.248 
L 172.832965 72.248 
L 170.924749 72.248 
L 169.016533 72.248 
L 167.108317 72.248 
L 165.200101 72.248 
L 163.291884 72.248 
L 161.383668 72.248 
L 159.475452 72.248 
L 157.567236 72.248 
L 155.65902 72.248 
L 153.750804 72.248 
z
" clip-path="url(#pe81a5f9655)" style="fill: #1f77b4"/>
   </g>
   <g id="PolyCollection_2">
    <defs>
     <path id="md871f95407" d="M 344.572412 -273.352 
L 344.572412 -274.611276 
L 346.480628 -276.290312 
L 348.388844 -277.969347 
L 350.29706 -279.648382 
L 352.205276 -281.327417 
L 354.113492 -283.006452 
L 356.021709 -284.685487 
L 357.929925 -286.364523 
L 359.838141 -288.043558 
L 361.746357 -289.722593 
L 363.654573 -291.401628 
L 365.562789 -293.080663 
L 367.471005 -294.759698 
L 369.379221 -296.438734 
L 371.287437 -298.117769 
L 373.195653 -299.796804 
L 375.103869 -301.475839 
L 377.012085 -303.154874 
L 378.920302 -304.83391 
L 380.828518 -306.512945 
L 382.736734 -308.19198 
L 384.64495 -309.871015 
L 386.553166 -311.55005 
L 388.461382 -313.229085 
L 390.369598 -314.908121 
L 392.277814 -316.587156 
L 394.18603 -318.266191 
L 396.094246 -319.945226 
L 398.002462 -321.624261 
L 399.910678 -323.303296 
L 401.818894 -324.982332 
L 403.727111 -326.661367 
L 405.635327 -328.340402 
L 407.543543 -330.019437 
L 409.451759 -331.698472 
L 411.359975 -333.377508 
L 413.268191 -335.056543 
L 415.176407 -336.735578 
L 417.084623 -338.414613 
L 418.992839 -340.093648 
L 420.901055 -341.772683 
L 422.809271 -343.451719 
L 424.717487 -345.130754 
L 426.625704 -346.809789 
L 428.53392 -348.488824 
L 430.442136 -350.167859 
L 432.350352 -351.846894 
L 434.258568 -353.52593 
L 436.166784 -355.204965 
L 438.075 -356.884 
L 438.075 -273.352 
L 438.075 -273.352 
L 436.166784 -273.352 
L 434.258568 -273.352 
L 432.350352 -273.352 
L 430.442136 -273.352 
L 428.53392 -273.352 
L 426.625704 -273.352 
L 424.717487 -273.352 
L 422.809271 -273.352 
L 420.901055 -273.352 
L 418.992839 -273.352 
L 417.084623 -273.352 
L 415.176407 -273.352 
L 413.268191 -273.352 
L 411.359975 -273.352 
L 409.451759 -273.352 
L 407.543543 -273.352 
L 405.635327 -273.352 
L 403.727111 -273.352 
L 401.818894 -273.352 
L 399.910678 -273.352 
L 398.002462 -273.352 
L 396.094246 -273.352 
L 394.18603 -273.352 
L 392.277814 -273.352 
L 390.369598 -273.352 
L 388.461382 -273.352 
L 386.553166 -273.352 
L 384.64495 -273.352 
L 382.736734 -273.352 
L 380.828518 -273.352 
L 378.920302 -273.352 
L 377.012085 -273.352 
L 375.103869 -273.352 
L 373.195653 -273.352 
L 371.287437 -273.352 
L 369.379221 -273.352 
L 367.471005 -273.352 
L 365.562789 -273.352 
L 363.654573 -273.352 
L 361.746357 -273.352 
L 359.838141 -273.352 
L 357.929925 -273.352 
L 356.021709 -273.352 
L 354.113492 -273.352 
L 352.205276 -273.352 
L 350.29706 -273.352 
L 348.388844 -273.352 
L 346.480628 -273.352 
L 344.572412 -273.352 
z
" style="stroke: #ffffff"/>
    </defs>
    <g clip-path="url(#pe81a5f9655)">
     <use xlink:href="#md871f95407" x="0" y="345.6" style="fill: #ffffff; stroke: #ffffff"/>
    </g>
   </g>
   <g id="matplotlib.axis_1">
    <g id="xtick_1">
     <g id="line2d_1">
      <path d="M 58.34 295 
L 58.34 16.56 
" clip-path="url(#pe81a5f9655)" style="fill: none; stroke: #b0b0b0; stroke-width: 0.8; stroke-linecap: square"/>
     </g>
     <g id="line2d_2">
      <defs>
       <path id="m40fb4af822" d="M 0 0 
L 0 3.5 
" style="stroke: #000000; stroke-width: 0.8"/>
      </defs>
      <g>
       <use xlink:href="#m40fb4af822" x="58.34" y="295" style="stroke: #000000; stroke-width: 0.8"/>
      </g>
     </g>
     <g id="text_1">
      <!-- −1.0 -->
      <g transform="translate(40.127891 313.397656)scale(0.15 -0.15)">
       <defs>
        <path id="DejaVuSans-2212" d="M 678 2272 
L 4684 2272 
L 4684 1741 
L 678 1741 
L 678 2272 
z
" transform="scale(0.015625)"/>
        <path id="DejaVuSans-31" d="M 794 531 
L 1825 531 
L 1825 4091 
L 703 3866 
L 703 4441 
L 1819 4666 
L 2450 4666 
L 2450 531 
L 3481 531 
L 3481 0 
L 794 0 
L 794 531 
z
" transform="scale(0.015625)"/>
        <path id="DejaVuSans-2e" d="M 684 794 
L 1344 794 
L 1344 0 
L 684 0 
L 684 794 
z
" transform="scale(0.015625)"/>
        <path id="DejaVuSans-30" d="M 2034 4250 
Q 1547 4250 1301 3770 
Q 1056 3291 1056 2328 
Q 1056 1369 1301 889 
Q 1547 409 2034 409 
Q 2525 409 2770 889 
Q 3016 1369 3016 2328 
Q 3016 3291 2770 3770 
Q 2525 4250 2034 4250 
z
M 2034 4750 
Q 2819 4750 3233 4129 
Q 3647 3509 3647 2328 
Q 3647 1150 3233 529 
Q 2819 -91 2034 -91 
Q 1250 -91 836 529 
Q 422 1150 422 2328 
Q 422 3509 836 4129 
Q 1250 4750 2034 4750 
z
" transform="scale(0.015625)"/>
       </defs>
       <use xlink:href="#DejaVuSans-2212"/>
       <use xlink:href="#DejaVuSans-31" x="83.789062"/>
       <use xlink:href="#DejaVuSans-2e" x="147.412109"/>
       <use xlink:href="#DejaVuSans-30" x="179.199219"/>
      </g>
     </g>
    </g>
    <g id="xtick_2">
     <g id="line2d_3">
      <path d="M 105.806875 295 
L 105.806875 16.56 
" clip-path="url(#pe81a5f9655)" style="fill: none; stroke: #b0b0b0; stroke-width: 0.8; stroke-linecap: square"/>
     </g>
     <g id="line2d_4">
      <g>
       <use xlink:href="#m40fb4af822" x="105.806875" y="295" style="stroke: #000000; stroke-width: 0.8"/>
      </g>
     </g>
     <g id="text_2">
      <!-- −0.5 -->
      <g transform="translate(87.594766 313.397656)scale(0.15 -0.15)">
       <defs>
        <path id="DejaVuSans-35" d="M 691 4666 
L 3169 4666 
L 3169 4134 
L 1269 4134 
L 1269 2991 
Q 1406 3038 1543 3061 
Q 1681 3084 1819 3084 
Q 2600 3084 3056 2656 
Q 3513 2228 3513 1497 
Q 3513 744 3044 326 
Q 2575 -91 1722 -91 
Q 1428 -91 1123 -41 
Q 819 9 494 109 
L 494 744 
Q 775 591 1075 516 
Q 1375 441 1709 441 
Q 2250 441 2565 725 
Q 2881 1009 2881 1497 
Q 2881 1984 2565 2268 
Q 2250 2553 1709 2553 
Q 1456 2553 1204 2497 
Q 953 2441 691 2322 
L 691 4666 
z
" transform="scale(0.015625)"/>
       </defs>
       <use xlink:href="#DejaVuSans-2212"/>
       <use xlink:href="#DejaVuSans-30" x="83.789062"/>
       <use xlink:href="#DejaVuSans-2e" x="147.412109"/>
       <use xlink:href="#DejaVuSans-35" x="179.199219"/>
      </g>
     </g>
    </g>
    <g id="xtick_3">
     <g id="line2d_5">
      <path d="M 153.27375 295 
L 153.27375 16.56 
" clip-path="url(#pe81a5f9655)" style="fill: none; stroke: #b0b0b0; stroke-width: 0.8; stroke-linecap: square"/>
     </g>
     <g id="line2d_6">
      <g>
       <use xlink:href="#m40fb4af822" x="153.27375" y="295" style="stroke: #000000; stroke-width: 0.8"/>
      </g>
     </g>
     <g id="text_3">
      <!-- 0.0 -->
      <g transform="translate(141.346406 313.397656)scale(0.15 -0.15)">
       <use xlink:href="#DejaVuSans-30"/>
       <use xlink:href="#DejaVuSans-2e" x="63.623047"/>
       <use xlink:href="#DejaVuSans-30" x="95.410156"/>
      </g>
     </g>
    </g>
    <g id="xtick_4">
     <g id="line2d_7">
      <path d="M 200.740625 295 
L 200.740625 16.56 
" clip-path="url(#pe81a5f9655)" style="fill: none; stroke: #b0b0b0; stroke-width: 0.8; stroke-linecap: square"/>
     </g>
     <g id="line2d_8">
      <g>
       <use xlink:href="#m40fb4af822" x="200.740625" y="295" style="stroke: #000000; stroke-width: 0.8"/>
      </g>
     </g>
     <g id="text_4">
      <!-- 0.5 -->
      <g transform="translate(188.813281 313.397656)scale(0.15 -0.15)">
       <use xlink:href="#DejaVuSans-30"/>
       <use xlink:href="#DejaVuSans-2e" x="63.623047"/>
       <use xlink:href="#DejaVuSans-35" x="95.410156"/>
      </g>
     </g>
    </g>
    <g id="xtick_5">
     <g id="line2d_9">
      <path d="M 248.2075 295 
L 248.2075 16.56 
" clip-path="url(#pe81a5f9655)" style="fill: none; stroke: #b0b0b0; stroke-width: 0.8; stroke-linecap: square"/>
     </g>
     <g id="line2d_10">
      <g>
       <use xlink:href="#m40fb4af822" x="248.2075" y="295" style="stroke: #000000; stroke-width: 0.8"/>
      </g>
     </g>
     <g id="text_5">
      <!-- 1.0 -->
      <g transform="translate(236.280156 313.397656)scale(0.15 -0.15)">
       <use xlink:href="#DejaVuSans-31"/>
       <use xlink:href="#DejaVuSans-2e" x="63.623047"/>
       <use xlink:href="#DejaVuSans-30" x="95.410156"/>
      </g>
     </g>
    </g>
    <g id="xtick_6">
     <g id="line2d_11">
      <path d="M 295.674375 295 
L 295.674375 16.56 
" clip-path="url(#pe81a5f9655)" style="fill: none; stroke: #b0b0b0; stroke-width: 0.8; stroke-linecap: square"/>
     </g>
     <g id="line2d_12">
      <g>
       <use xlink:href="#m40fb4af822" x="295.674375" y="295" style="stroke: #000000; stroke-width: 0.8"/>
      </g>
     </g>
     <g id="text_6">
      <!-- 1.5 -->
      <g transform="translate(283.747031 313.397656)scale(0.15 -0.15)">
       <use xlink:href="#DejaVuSans-31"/>
       <use xlink:href="#DejaVuSans-2e" x="63.623047"/>
       <use xlink:href="#DejaVuSans-35" x="95.410156"/>
      </g>
     </g>
    </g>
    <g id="xtick_7">
     <g id="line2d_13">
      <path d="M 343.14125 295 
L 343.14125 16.56 
" clip-path="url(#pe81a5f9655)" style="fill: none; stroke: #b0b0b0; stroke-width: 0.8; stroke-linecap: square"/>
     </g>
     <g id="line2d_14">
      <g>
       <use xlink:href="#m40fb4af822" x="343.14125" y="295" style="stroke: #000000; stroke-width: 0.8"/>
      </g>
     </g>
     <g id="text_7">
      <!-- 2.0 -->
      <g transform="translate(331.213906 313.397656)scale(0.15 -0.15)">
       <defs>
        <path id="DejaVuSans-32" d="M 1228 531 
L 3431 531 
L 3431 0 
L 469 0 
L 469 531 
Q 828 903 1448 1529 
Q 2069 2156 2228 2338 
Q 2531 2678 2651 2914 
Q 2772 3150 2772 3378 
Q 2772 3750 2511 3984 
Q 2250 4219 1831 4219 
Q 1534 4219 1204 4116 
Q 875 4013 500 3803 
L 500 4441 
Q 881 4594 1212 4672 
Q 1544 4750 1819 4750 
Q 2544 4750 2975 4387 
Q 3406 4025 3406 3419 
Q 3406 3131 3298 2873 
Q 3191 2616 2906 2266 
Q 2828 2175 2409 1742 
Q 1991 1309 1228 531 
z
" transform="scale(0.015625)"/>
       </defs>
       <use xlink:href="#DejaVuSans-32"/>
       <use xlink:href="#DejaVuSans-2e" x="63.623047"/>
       <use xlink:href="#DejaVuSans-30" x="95.410156"/>
      </g>
     </g>
    </g>
    <g id="xtick_8">
     <g id="line2d_15">
      <path d="M 390.608125 295 
L 390.608125 16.56 
" clip-path="url(#pe81a5f9655)" style="fill: none; stroke: #b0b0b0; stroke-width: 0.8; stroke-linecap: square"/>
     </g>
     <g id="line2d_16">
      <g>
       <use xlink:href="#m40fb4af822" x="390.608125" y="295" style="stroke: #000000; stroke-width: 0.8"/>
      </g>
     </g>
     <g id="text_8">
      <!-- 2.5 -->
      <g transform="translate(378.680781 313.397656)scale(0.15 -0.15)">
       <use xlink:href="#DejaVuSans-32"/>
       <use xlink:href="#DejaVuSans-2e" x="63.623047"/>
       <use xlink:href="#DejaVuSans-35" x="95.410156"/>
      </g>
     </g>
    </g>
    <g id="xtick_9">
     <g id="line2d_17">
      <path d="M 438.075 295 
L 438.075 16.56 
" clip-path="url(#pe81a5f9655)" style="fill: none; stroke: #b0b0b0; stroke-width: 0.8; stroke-linecap: square"/>
     </g>
     <g id="line2d_18">
      <g>
       <use xlink:href="#m40fb4af822" x="438.075" y="295" style="stroke: #000000; stroke-width: 0.8"/>
      </g>
     </g>
     <g id="text_9">
      <!-- 3.0 -->
      <g transform="translate(426.147656 313.397656)scale(0.15 -0.15)">
       <defs>
        <path id="DejaVuSans-33" d="M 2597 2516 
Q 3050 2419 3304 2112 
Q 3559 1806 3559 1356 
Q 3559 666 3084 287 
Q 2609 -91 1734 -91 
Q 1441 -91 1130 -33 
Q 819 25 488 141 
L 488 750 
Q 750 597 1062 519 
Q 1375 441 1716 441 
Q 2309 441 2620 675 
Q 2931 909 2931 1356 
Q 2931 1769 2642 2001 
Q 2353 2234 1838 2234 
L 1294 2234 
L 1294 2753 
L 1863 2753 
Q 2328 2753 2575 2939 
Q 2822 3125 2822 3475 
Q 2822 3834 2567 4026 
Q 2313 4219 1838 4219 
Q 1578 4219 1281 4162 
Q 984 4106 628 3988 
L 628 4550 
Q 988 4650 1302 4700 
Q 1616 4750 1894 4750 
Q 2613 4750 3031 4423 
Q 3450 4097 3450 3541 
Q 3450 3153 3228 2886 
Q 3006 2619 2597 2516 
z
" transform="scale(0.015625)"/>
       </defs>
       <use xlink:href="#DejaVuSans-33"/>
       <use xlink:href="#DejaVuSans-2e" x="63.623047"/>
       <use xlink:href="#DejaVuSans-30" x="95.410156"/>
      </g>
     </g>
    </g>
    <g id="text_10">
     <!-- x -->
     <g transform="translate(243.768437 331.914844)scale(0.15 -0.15)">
      <defs>
       <path id="DejaVuSans-78" d="M 3513 3500 
L 2247 1797 
L 3578 0 
L 2900 0 
L 1881 1375 
L 863 0 
L 184 0 
L 1544 1831 
L 300 3500 
L 978 3500 
L 1906 2253 
L 2834 3500 
L 3513 3500 
z
" transform="scale(0.015625)"/>
      </defs>
      <use xlink:href="#DejaVuSans-78"/>
     </g>
    </g>
   </g>
   <g id="matplotlib.axis_2">
    <g id="ytick_1">
     <g id="line2d_19">
      <path d="M 58.34 295 
L 438.075 295 
" clip-path="url(#pe81a5f9655)" style="fill: none; stroke: #b0b0b0; stroke-width: 0.8; stroke-linecap: square"/>
     </g>
     <g id="line2d_20">
      <defs>
       <path id="mb2c38bca5d" d="M 0 0 
L -3.5 0 
" style="stroke: #000000; stroke-width: 0.8"/>
      </defs>
      <g>
       <use xlink:href="#mb2c38bca5d" x="58.34" y="295" style="stroke: #000000; stroke-width: 0.8"/>
      </g>
     </g>
     <g id="text_11">
      <!-- −1 -->
      <g transform="translate(29.226719 300.698828)scale(0.15 -0.15)">
       <use xlink:href="#DejaVuSans-2212"/>
       <use xlink:href="#DejaVuSans-31" x="83.789062"/>
      </g>
     </g>
    </g>
    <g id="ytick_2">
     <g id="line2d_21">
      <path d="M 58.34 239.312 
L 438.075 239.312 
" clip-path="url(#pe81a5f9655)" style="fill: none; stroke: #b0b0b0; stroke-width: 0.8; stroke-linecap: square"/>
     </g>
     <g id="line2d_22">
      <g>
       <use xlink:href="#mb2c38bca5d" x="58.34" y="239.312" style="stroke: #000000; stroke-width: 0.8"/>
      </g>
     </g>
     <g id="text_12">
      <!-- 0 -->
      <g transform="translate(41.79625 245.010828)scale(0.15 -0.15)">
       <use xlink:href="#DejaVuSans-30"/>
      </g>
     </g>
    </g>
    <g id="ytick_3">
     <g id="line2d_23">
      <path d="M 58.34 183.624 
L 438.075 183.624 
" clip-path="url(#pe81a5f9655)" style="fill: none; stroke: #b0b0b0; stroke-width: 0.8; stroke-linecap: square"/>
     </g>
     <g id="line2d_24">
      <g>
       <use xlink:href="#mb2c38bca5d" x="58.34" y="183.624" style="stroke: #000000; stroke-width: 0.8"/>
      </g>
     </g>
     <g id="text_13">
      <!-- 1 -->
      <g transform="translate(41.79625 189.322828)scale(0.15 -0.15)">
       <use xlink:href="#DejaVuSans-31"/>
      </g>
     </g>
    </g>
    <g id="ytick_4">
     <g id="line2d_25">
      <path d="M 58.34 127.936 
L 438.075 127.936 
" clip-path="url(#pe81a5f9655)" style="fill: none; stroke: #b0b0b0; stroke-width: 0.8; stroke-linecap: square"/>
     </g>
     <g id="line2d_26">
      <g>
       <use xlink:href="#mb2c38bca5d" x="58.34" y="127.936" style="stroke: #000000; stroke-width: 0.8"/>
      </g>
     </g>
     <g id="text_14">
      <!-- 2 -->
      <g transform="translate(41.79625 133.634828)scale(0.15 -0.15)">
       <use xlink:href="#DejaVuSans-32"/>
      </g>
     </g>
    </g>
    <g id="ytick_5">
     <g id="line2d_27">
      <path d="M 58.34 72.248 
L 438.075 72.248 
" clip-path="url(#pe81a5f9655)" style="fill: none; stroke: #b0b0b0; stroke-width: 0.8; stroke-linecap: square"/>
     </g>
     <g id="line2d_28">
      <g>
       <use xlink:href="#mb2c38bca5d" x="58.34" y="72.248" style="stroke: #000000; stroke-width: 0.8"/>
      </g>
     </g>
     <g id="text_15">
      <!-- 3 -->
      <g transform="translate(41.79625 77.946828)scale(0.15 -0.15)">
       <use xlink:href="#DejaVuSans-33"/>
      </g>
     </g>
    </g>
    <g id="ytick_6">
     <g id="line2d_29">
      <path d="M 58.34 16.56 
L 438.075 16.56 
" clip-path="url(#pe81a5f9655)" style="fill: none; stroke: #b0b0b0; stroke-width: 0.8; stroke-linecap: square"/>
     </g>
     <g id="line2d_30">
      <g>
       <use xlink:href="#mb2c38bca5d" x="58.34" y="16.56" style="stroke: #000000; stroke-width: 0.8"/>
      </g>
     </g>
     <g id="text_16">
      <!-- 4 -->
      <g transform="translate(41.79625 22.258828)scale(0.15 -0.15)">
       <defs>
        <path id="DejaVuSans-34" d="M 2419 4116 
L 825 1625 
L 2419 1625 
L 2419 4116 
z
M 2253 4666 
L 3047 4666 
L 3047 1625 
L 3713 1625 
L 3713 1100 
L 3047 1100 
L 3047 0 
L 2419 0 
L 2419 1100 
L 313 1100 
L 313 1709 
L 2253 4666 
z
" transform="scale(0.015625)"/>
       </defs>
       <use xlink:href="#DejaVuSans-34"/>
      </g>
     </g>
    </g>
    <g id="text_17">
     <!-- y -->
     <g transform="translate(22.107188 160.219063)rotate(-90)scale(0.15 -0.15)">
      <defs>
       <path id="DejaVuSans-79" d="M 2059 -325 
Q 1816 -950 1584 -1140 
Q 1353 -1331 966 -1331 
L 506 -1331 
L 506 -850 
L 844 -850 
Q 1081 -850 1212 -737 
Q 1344 -625 1503 -206 
L 1606 56 
L 191 3500 
L 800 3500 
L 1894 763 
L 2988 3500 
L 3597 3500 
L 2059 -325 
z
" transform="scale(0.015625)"/>
      </defs>
      <use xlink:href="#DejaVuSans-79"/>
     </g>
    </g>
   </g>
   <g id="patch_3">
    <path d="M 58.34 295 
L 58.34 16.56 
" style="fill: none; stroke: #000000; stroke-width: 0.8; stroke-linejoin: miter; stroke-linecap: square"/>
   </g>
   <g id="patch_4">
    <path d="M 438.075 295 
L 438.075 16.56 
" style="fill: none; stroke: #000000; stroke-width: 0.8; stroke-linejoin: miter; stroke-linecap: square"/>
   </g>
   <g id="patch_5">
    <path d="M 58.34 295 
L 438.075 295 
" style="fill: none; stroke: #000000; stroke-width: 0.8; stroke-linejoin: miter; stroke-linecap: square"/>
   </g>
   <g id="patch_6">
    <path d="M 58.34 16.56 
L 438.075 16.56 
" style="fill: none; stroke: #000000; stroke-width: 0.8; stroke-linejoin: miter; stroke-linecap: square"/>
   </g>
  </g>
 </g>
 <defs>
  <clipPath id="pe81a5f9655">
   <rect x="58.34" y="16.56" width="379.735" height="278.44"/>
  </clipPath>
 </defs>
</svg>
